<svg width="1128" height="988" viewBox="0 0 1128 988" fill="none" xmlns="http://www.w3.org/2000/svg">
<g opacity="0.6">
<path d="M77.3002 157.027L77.2761 156.978L77.2469 156.933C76.0345 155.041 76.2175 152.71 77.2956 150.966C78.3675 149.232 80.2176 148.225 82.2844 148.743L82.2844 148.743L82.2951 148.746C193.22 175.272 257.754 180.296 306.228 180.094C322.597 180.025 337.095 179.365 350.904 178.735C378.053 177.498 402.541 176.382 433.36 180.127L433.361 180.127C476.262 185.285 520.403 199.719 553.845 212.881C570.559 219.459 584.589 225.714 594.438 230.325C597.513 231.764 600.18 233.042 602.394 234.12C501.306 211.472 412.61 221.382 335.953 229.946C320.216 231.705 304.986 233.406 290.26 234.758C246.025 238.818 206.394 239.719 171.13 229.634C135.931 219.569 105.015 198.537 78.2365 158.583C78.0579 158.234 77.8799 157.966 77.7291 157.739L77.721 157.727C77.5599 157.485 77.4304 157.288 77.3002 157.027Z" stroke="url(#paint0_linear_1_86)" stroke-width="2"/>
<path d="M158.435 275.685C159.081 273.978 160.506 272.81 162.384 272.934C263.164 280.375 325.438 275.2 372.892 267.711C389.423 265.102 404.165 262.21 418.087 259.479C424.127 258.294 430.013 257.14 435.823 256.052C455.04 252.453 473.477 249.573 494.114 248.687C532.646 247.077 572.661 254.487 603.072 262.316C618.271 266.229 631.058 270.243 640.043 273.278C642.109 273.976 643.975 274.622 645.622 275.203C553.622 263.718 472.873 285.988 401.663 305.626C390.383 308.737 379.343 311.782 368.535 314.616C327.854 325.284 290.515 332.959 256.016 330.085C221.575 327.216 189.924 313.827 160.609 282.249L160.597 282.236L160.585 282.223C160.554 282.192 160.508 282.138 160.422 282.026C160.408 282.007 160.392 281.987 160.375 281.965C160.305 281.873 160.216 281.756 160.122 281.643C159.914 281.393 159.626 281.087 159.224 280.846C157.996 279.394 157.799 277.365 158.435 275.685Z" stroke="url(#paint1_linear_1_86)" stroke-width="2"/>
<path d="M370.649 404.182C338.23 405.099 304.055 396.135 265.247 369.77C265.071 369.593 264.887 369.409 264.646 369.167C264.475 368.995 264.274 368.793 264.025 368.544L264.006 368.525L263.987 368.507C263.373 367.953 262.907 367.084 262.647 366.017C262.388 364.957 262.35 363.769 262.531 362.662C262.713 361.548 263.105 360.584 263.641 359.922C264.159 359.281 264.795 358.934 265.57 358.934C350.899 359.096 404.725 349.223 446.22 338.208C459.971 334.558 472.384 330.778 484.117 327.204C490.061 325.394 495.832 323.636 501.513 321.976C518.431 317.031 534.626 312.926 552.513 310.753C601.049 304.949 636.692 309.87 660.174 316.222C671.917 319.398 680.623 322.934 686.382 325.668C688.1 326.483 689.555 327.227 690.751 327.869C607.747 317.915 545.2 344.932 488.321 369.501C480.793 372.753 473.365 375.961 466.002 379.036C433.932 392.426 403.128 403.263 370.649 404.182Z" stroke="url(#paint2_linear_1_86)" stroke-width="2"/>
<path d="M776.116 386.436C734.432 392.267 713.58 410.64 694.201 427.715C692.013 429.643 689.844 431.554 687.666 433.428C676.495 443.043 665.113 451.679 649.712 456.814C634.315 461.948 614.807 463.612 587.369 459.104L587.361 459.103C580.289 458 578.085 455.041 577.929 452.631C577.763 450.065 579.798 447.363 582.655 446.501C628.955 433.229 652.16 422.126 667.963 412.654C673.175 409.53 677.599 406.572 681.753 403.794C683.87 402.378 685.917 401.009 687.963 399.689C694.041 395.766 700.204 392.206 708.42 388.925C724.005 383.024 742.356 382.69 756.881 383.857C764.133 384.44 770.403 385.394 774.859 386.203C775.296 386.282 775.715 386.36 776.116 386.436Z" stroke="url(#paint3_linear_1_86)" stroke-width="2"/>
<path d="M728.374 361.088C665.546 364.103 623.343 386.316 584.952 406.523C581.808 408.178 578.691 409.818 575.589 411.434C532.99 433.63 493.48 451.101 432.787 434.233L432.786 434.232C428.229 432.972 425.321 431.189 423.62 429.295C421.937 427.42 421.402 425.4 421.628 423.515C422.089 419.672 425.78 416.093 430.392 415.496L430.406 415.494L430.421 415.492C500.403 404.33 537.128 393.566 562.863 384.041C571.325 380.909 578.568 377.925 585.395 375.113C599.386 369.35 611.626 364.308 629.01 360.191L629.012 360.191C653.186 354.409 680.049 355.045 700.911 357.142C711.333 358.189 720.239 359.6 726.538 360.748C727.177 360.864 727.79 360.978 728.374 361.088Z" stroke="url(#paint4_linear_1_86)" stroke-width="2"/>
<path d="M559.402 177.996L559.396 177.992C528.882 157.473 463.552 129.642 328.046 136.116L328.043 136.116C322.384 136.4 316.469 136.761 310.321 137.136C246.37 141.034 157.063 146.479 65.0428 83.2675L65.035 83.2623C40.6832 66.8682 15.9868 38.8724 3.17544 12.8454L3.1621 12.8183L3.14716 12.7921C1.95818 10.7048 1.3331 7.95445 1.01627 5.0941C0.902 4.06229 1.40675 3.09854 2.29674 2.4608C3.1826 1.82602 4.36991 1.58008 5.47937 1.94078C130.75 52.4022 211.32 67.7801 280.292 75.1042C300.465 77.2464 319.622 78.6988 338.601 80.1377C384.54 83.6208 429.429 87.0242 485.134 99.9379C517.245 107.471 553.332 134.701 584.39 163.151C607.141 183.992 627.069 205.365 640.681 219.965C645.64 225.283 649.76 229.702 652.873 232.869L652.925 232.922L652.984 232.966C653.675 233.487 653.894 234.765 653.052 236.18C652.737 236.706 652.192 237.059 651.51 237.215C650.843 237.367 650.111 237.311 649.508 237.083C625.05 223.096 601.885 207.171 576.625 189.805C571 185.938 565.272 182 559.402 177.996Z" stroke="url(#paint5_linear_1_86)" stroke-width="2"/>
<path d="M862.915 816.434L862.903 816.45L862.891 816.467C859.557 821.334 853.75 824.052 847.706 824.401C841.662 824.751 835.538 822.723 831.593 818.305L831.554 818.261L831.509 818.222C828.978 815.984 827.678 813.048 826.773 809.814C826.359 808.334 826.035 806.818 825.708 805.286C825.677 805.142 825.646 804.998 825.615 804.853C825.261 803.203 824.893 801.537 824.401 799.962C811.835 744.693 799.592 689.423 787.348 633.822L787.337 633.772L787.321 633.722C786.728 631.936 786.779 630.606 787.273 629.584C787.767 628.563 788.793 627.655 790.563 626.905C791.877 626.571 792.79 626.705 793.469 627.04C794.18 627.391 794.77 628.03 795.301 628.93C795.834 629.835 796.261 630.919 796.689 632.079C796.746 632.233 796.804 632.389 796.861 632.546C797.217 633.516 797.588 634.528 798.021 635.407C804.031 651.814 809.867 668.306 815.709 684.812C823.31 706.288 830.919 727.787 838.929 749.154C840.126 752.58 842.05 754.918 844.445 756.516C846.82 758.101 849.603 758.921 852.468 759.418C854.711 759.806 857.07 760.005 859.364 760.198C859.987 760.25 860.605 760.302 861.215 760.358C864.057 760.616 866.736 760.946 869.089 761.69C871.512 763.264 872.926 765.133 873.695 767.173C874.483 769.261 874.619 771.598 874.366 774.095C874.112 776.594 873.477 779.194 872.769 781.793C872.601 782.409 872.428 783.026 872.256 783.643C871.716 785.578 871.179 787.499 870.806 789.297C869.763 792.568 869.164 796.079 868.579 799.508C868.344 800.888 868.111 802.254 867.852 803.586C866.932 808.32 865.677 812.742 862.915 816.434Z" stroke="url(#paint6_linear_1_86)" stroke-width="2"/>
<path d="M887.252 637.267L887.256 637.281L887.261 637.295C888.379 640.368 886.666 643.839 883.537 644.37C882.461 644.523 881.686 644.48 881.135 644.19C880.643 643.932 880.123 643.364 879.837 641.931L879.811 641.801L879.751 641.681C875.486 633.122 871.489 624.36 867.476 615.562C867.101 614.74 866.726 613.919 866.351 613.097C861.96 603.479 857.52 593.84 852.673 584.44L852.583 584.263L852.431 584.135C852.154 583.9 851.876 583.664 851.599 583.429C839.255 572.959 826.62 562.242 819.16 547.589L819.151 547.57L819.14 547.551C805.478 523.322 806.736 491.74 821.982 468.446C822.649 467.604 823.23 466.688 823.778 465.824L823.786 465.811C824.355 464.913 824.891 464.069 825.496 463.307L825.515 463.283L825.533 463.258C827.314 460.707 831.111 461.192 832.146 464.299L832.146 464.3C832.42 465.122 832.674 465.972 832.931 466.832C833.532 468.843 834.148 470.904 835.066 472.764C841.372 492.564 847.596 512.454 853.827 532.371C864.779 567.373 875.756 602.455 887.252 637.267Z" stroke="url(#paint7_linear_1_86)" stroke-width="2"/>
<path d="M889.79 376.593L889.788 376.612L889.787 376.632C889.469 383.799 887.96 390.749 886.075 397.671C885.271 400.627 884.385 403.614 883.497 406.612C882.331 410.547 881.16 414.501 880.158 418.424C880.006 418.877 879.887 419.14 879.752 419.32C879.64 419.471 879.492 419.597 879.19 419.699L879.151 419.712L879.114 419.728C877.537 420.406 876.003 419.303 875.998 417.745C876.113 410.97 877.045 404.266 877.982 397.518C878.355 394.836 878.729 392.148 879.052 389.445C880.184 379.995 880.686 370.469 878.222 360.908L878.219 360.899L878.217 360.89C875.418 350.806 871.017 341.206 866.66 331.702C865.459 329.082 864.261 326.468 863.101 323.854C857.712 311.711 853.104 299.487 852.467 286.104C851.917 273.879 854.488 261.899 857.085 249.801C857.476 247.978 857.868 246.153 858.25 244.323L858.319 243.993L858.174 243.689C847.936 222.187 843.167 197.544 848.566 174.233C848.747 173.692 848.893 173.292 849.019 173.003C849.193 173.213 849.41 173.502 849.685 173.888C851.345 176.305 853.078 178.701 854.816 181.106C858.369 186.02 861.947 190.969 864.987 196.205C869.486 203.955 872.7 212.177 872.705 221.464C872.253 230.952 870.144 240.395 868.013 249.936C867.117 253.948 866.217 257.978 865.434 262.035C862.807 275.661 861.556 289.457 866.641 303.292C868.671 309.403 871.286 315.399 874.016 321.353C874.769 322.994 875.529 324.631 876.289 326.266C878.295 330.581 880.295 334.885 882.13 339.238C887.184 351.23 890.897 363.417 889.79 376.593Z" stroke="url(#paint8_linear_1_86)" stroke-width="2"/>
<path d="M923.372 441.357L923.307 441.376L923.245 441.404C920.825 442.483 918.189 441.65 916.255 439.746C914.312 437.833 913.293 435.039 913.979 432.561L914.015 432.43V432.295V432.048V431.802V431.556V431.309V431.063V430.817V430.571V430.324V430.078V429.832V429.585V429.339V429.092V428.846V428.6V428.353V428.107V427.861V427.614V427.368V427.121V426.875V426.628V426.382V426.136V425.889V425.643V425.396V425.15V424.903V424.657V424.41V424.164V423.917V423.671V423.424V423.178V422.931V422.685V422.438V422.192V421.945V421.699V421.452V421.205V420.959V420.712V420.466V420.219V419.972V419.726V419.479V419.233V418.986V418.739V418.493V418.246V417.999V417.753V417.506V417.259V417.013V416.766V416.519V416.273V416.026V415.779V415.533V415.286V415.039V414.792V414.546V414.299V414.052V413.806V413.559V413.312V413.065V412.818V412.572V412.325V412.078V411.831V411.585V411.338V411.091V410.844V410.597V410.351V410.104V409.857V409.61V409.363V409.116V408.87V408.623V408.376V408.129V407.882V407.635V407.388V407.142V406.895V406.648V406.401V406.154V405.907V405.66V405.413V405.166V404.92V404.673V404.426V404.179V403.932V403.685V403.438V403.191V402.944V402.697V402.45V402.203V401.956V401.709V401.462V401.215V400.968V400.721V400.474V400.227V399.98V399.733V399.486V399.239V398.992V398.745V398.498V398.251V398.004V397.757V397.51V397.263V397.016V396.769V396.522V396.275V396.028V395.781V395.534V395.287V395.04V394.793V394.546V394.299V394.052V393.805V393.558V393.31V393.063V392.816V392.569V392.322V392.075V391.828V391.581V391.334V391.087V390.84V390.592V390.345V390.098V389.851V389.604V389.357V389.11V388.863V388.615V388.368V388.121V387.874V387.627V387.38V387.133V386.886V386.638V386.391V386.144V385.897V385.65V385.403V385.155V384.908V384.661V384.414V384.167V383.92V383.672V383.425V383.178V382.931V382.684V382.437V382.189V381.942V381.695V381.448V381.201V380.954V380.706V380.459V380.212V379.965V379.718V379.47V379.223V378.976V378.729V378.482V378.234V377.987V377.74V377.493V377.246V376.998V376.751V376.504V376.257V376.01V375.762V375.515V375.268V375.021V374.774V374.526V374.279V374.032V373.785V373.537V373.29V373.043V372.796V372.549V372.301V372.054V371.807V371.56V371.313V371.065V370.818V370.571V370.324V370.076V369.829V369.582V369.335V369.088V368.84V368.593V368.346V368.099V367.852V367.604V367.357V367.11V366.863V366.615V366.368V366.121V365.874V365.627V365.379V365.132V364.885V364.638V364.39V364.143V363.896V363.649V363.402V363.154V362.907V362.66V362.413V362.166V361.918V361.671V361.424V361.177V360.93V360.682V360.435V360.188V359.941V359.694V359.446V359.199V358.952V358.705V358.458V358.21V357.963V357.716V357.469V357.222V356.974V356.727V356.48V356.233V355.986V355.739V355.491V355.244V354.997V354.75V354.503V354.256V354.008V353.761V353.514V353.267V353.02V352.773V352.525V352.278V352.031V351.784V351.537V351.29V351.043V350.795V350.548V350.301V350.054V349.807V349.56V349.313V349.065V348.818V348.571V348.324V348.077V347.83V347.583V347.336V347.089V346.841V346.594V346.347V346.1V345.853V345.606V345.359V345.112V344.865V344.618V344.371V344.124V343.876V343.629V343.382V343.135V342.888V342.641V342.394V342.147V341.9V341.653V341.406V341.159V340.912V340.665V340.418V340.171V339.924V339.677V339.43V339.183V338.936V338.689V338.442V338.195V337.948V337.701V337.454V337.207V336.96V336.713V336.466V336.219V335.972V335.725V335.478V335.231V334.984V334.737V334.49V334.243V333.996V333.749V333.503V333.256V333.009V332.762V332.515V332.268V332.021V331.774V331.527V331.28V331.034V330.787V330.54V330.293V330.046V329.799V329.552V329.306V329.059V328.812V328.565V328.318V328.071V327.825V327.578V327.331V327.084V326.837V326.591V326.344V326.097V325.85V325.603V325.357V325.11V324.863V324.616V324.37V324.123V323.876V323.629V323.383V323.136V322.889V322.643V322.396V322.149V321.902V321.656V321.409V321.162V320.916V320.669V320.422V320.176V319.929V319.682V319.436V319.189V318.943V318.696V318.449V318.203V317.956V317.71V317.463V317.216V316.97V316.723V316.477V316.23V315.984V315.737V315.49V315.244V314.997V314.751V314.504V314.258V314.011V313.765V313.518V313.272V313.025V312.779V312.532V312.286V312.04V311.793V311.547V311.3V311.054V310.807V310.561V310.315V310.068V309.822V309.575V309.329V309.083V308.836V308.59V308.344V308.097V307.851V307.605V307.358V307.112V306.866V306.619V306.373V306.127V305.899C914.659 288.547 918.824 270.404 930.516 257.406L930.525 257.395L930.535 257.385C937.938 248.666 945.664 239.947 953.708 231.227L953.726 231.209L953.742 231.189C955.453 229.133 956.588 226.605 956.223 223.972C956.114 222.656 955.98 221.379 955.848 220.124C955.192 213.876 954.592 208.169 957.438 200.882C962.566 190.308 969.111 183.756 976.121 176.738C976.483 176.375 976.847 176.011 977.211 175.645L977.212 175.645C977.946 174.907 978.901 175.289 979.065 176.106L979.067 176.117L979.07 176.129C984.163 198.802 979.076 223.457 968.524 243.994L968.362 244.31L968.435 244.657C969.022 247.452 969.67 250.264 970.323 253.095C972.565 262.82 974.856 272.759 974.857 282.916C974.556 299.361 967.688 314.281 960.729 329.397C960.271 330.39 959.814 331.384 959.358 332.379C952 348.434 945.036 364.814 946.822 383.201C946.825 388.895 947.416 394.65 948.002 400.354C948.136 401.66 948.27 402.964 948.397 404.264C949.079 411.276 949.551 418.206 948.765 425.034C947.708 430.729 943.989 434.063 939.171 436.363C935.562 438.086 931.467 439.173 927.518 440.222C926.108 440.596 924.717 440.966 923.372 441.357Z" stroke="url(#paint9_linear_1_86)" stroke-width="2"/>
<path d="M1301.36 194.017C1301.69 194.961 1301.69 194.961 1301.69 194.961L1301.69 194.96L1301.7 194.958L1301.72 194.951L1301.8 194.922C1301.88 194.896 1301.99 194.857 1302.14 194.806C1302.44 194.704 1302.89 194.553 1303.49 194.358C1304.68 193.968 1306.44 193.403 1308.74 192.706C1313.33 191.311 1320.05 189.386 1328.55 187.268C1345.56 183.034 1369.68 178.032 1398.15 174.966L1398.15 174.966C1461.13 168.043 1500.91 172.995 1536.86 177.471C1547.01 178.734 1556.85 179.959 1566.82 180.868C1612.17 185.005 1659.92 182.552 1750.54 147.463C1753.25 147.061 1754.73 147.944 1755.42 148.955C1756.17 150.047 1756.15 151.477 1755.56 152.428L1755.55 152.443L1755.54 152.458C1743.45 173.489 1730.8 195.467 1708.62 212.748C1686.46 230.01 1654.69 242.653 1604.25 244.748C1552.4 246.877 1512.29 238.179 1473.44 229.754C1471.11 229.247 1468.78 228.742 1466.45 228.24C1425.38 219.386 1385.04 211.593 1333.13 218.243C1266.88 226.674 1232.58 247.44 1213.47 260.109L1214.21 261.924C1270.54 251.107 1311.58 249.217 1344.9 251.624C1376.87 253.933 1401.76 260.197 1426.32 266.377C1427.37 266.64 1428.41 266.903 1429.46 267.166C1455.05 273.594 1480.57 279.74 1513.55 280.946C1546.52 282.153 1586.9 278.42 1642.23 265.148L1642.24 265.146C1644.84 264.494 1647.57 263.901 1649.93 264.198L1649.95 264.199C1654.89 264.751 1656.85 270.865 1653.83 274.17L1653.82 274.187L1653.8 274.205C1653.03 275.134 1652.09 276.071 1651.12 277.048L1651.11 277.054C1650.16 278.009 1649.17 279.002 1648.34 280.005L1647.55 280.858C1633.29 296.277 1618.61 312.155 1595.08 323.368C1571.11 334.79 1537.87 341.411 1486.42 337.539C1456.23 335.285 1433.12 328.905 1411.79 321.487C1404.63 318.998 1397.66 316.384 1390.68 313.767C1376.89 308.601 1363.08 303.425 1347.79 299.18C1301.57 286.35 1241.61 281.929 1125.8 310.732L1126.05 312.702C1236.88 312.223 1291.89 329.993 1339.66 345.424L1341.17 345.914C1365.26 353.693 1387.69 360.842 1414.68 364.659C1441.67 368.477 1473.18 368.959 1515.47 363.454C1517.9 363.188 1519.85 364.532 1520.73 366.37C1521.6 368.195 1521.4 370.439 1519.53 372.049L1519.52 372.056C1518.26 373.162 1516.92 374.193 1515.59 375.204L1515.28 375.433C1514.07 376.354 1512.87 377.265 1511.81 378.178C1499.11 388.174 1483.6 399.234 1462.63 406.047C1441.66 412.859 1415.17 415.443 1380.52 408.363C1328.33 397.426 1297.44 382.668 1270.38 369.743C1259.9 364.736 1250 360.004 1239.65 355.875C1202.56 341.073 1160.3 334.299 1066.89 350.808L1067.04 352.792C1139.53 354.727 1173.23 369.788 1207.47 386.117C1208.61 386.66 1209.75 387.205 1210.89 387.751C1244.19 403.664 1279.24 420.413 1351.54 427.15L1351.59 427.154H1351.63H1351.63H1351.63H1351.64H1351.64H1351.64H1351.64H1351.64H1351.64H1351.64H1351.64H1351.64H1351.64H1351.64H1351.64H1351.64H1351.64H1351.64H1351.64H1351.64H1351.64H1351.64H1351.64H1351.64H1351.64H1351.64H1351.64H1351.64H1351.64H1351.64H1351.64H1351.64H1351.64H1351.64H1351.64H1351.64H1351.64H1351.65H1351.65H1351.65H1351.65H1351.65H1351.65H1351.65H1351.65H1351.65H1351.65H1351.65H1351.65H1351.65H1351.65H1351.65H1351.65H1351.65H1351.65H1351.65H1351.65H1351.65H1351.65H1351.65H1351.65H1351.65H1351.65H1351.65H1351.65H1351.65H1351.65H1351.65H1351.65H1351.66H1351.66H1351.66H1351.66H1351.66H1351.66H1351.66H1351.66H1351.66H1351.66H1351.66H1351.66H1351.66H1351.66H1351.66H1351.66H1351.66H1351.66H1351.66H1351.66H1351.66H1351.66H1351.66H1351.66H1351.66H1351.66H1351.66H1351.66H1351.66H1351.67H1351.67H1351.67H1351.67H1351.67H1351.67H1351.67H1351.67H1351.67H1351.67H1351.67H1351.67H1351.67H1351.67H1351.67H1351.67H1351.67H1351.67H1351.67H1351.67H1351.67H1351.67H1351.67H1351.68H1351.68H1351.68H1351.68H1351.68H1351.68H1351.68H1351.68H1351.68H1351.68H1351.68H1351.68H1351.68H1351.68H1351.68H1351.68H1351.68H1351.68H1351.68H1351.68H1351.69H1351.69H1351.69H1351.69H1351.69H1351.69H1351.69H1351.69H1351.69H1351.69H1351.69H1351.69H1351.69H1351.69H1351.69H1351.69H1351.69H1351.7H1351.7H1351.7H1351.7H1351.7H1351.7H1351.7H1351.7H1351.7H1351.7H1351.7H1351.7H1351.7H1351.7H1351.7H1351.71H1351.71H1351.71H1351.71H1351.71H1351.71H1351.71H1351.71H1351.71H1351.71H1351.71H1351.71H1351.71H1351.71H1351.72H1351.72H1351.72H1351.72H1351.72H1351.72H1351.72H1351.72H1351.72H1351.72H1351.72H1351.72H1351.72H1351.73H1351.73H1351.73H1351.73H1351.73H1351.73H1351.73H1351.73H1351.73H1351.73H1351.73H1351.73H1351.74H1351.74H1351.74H1351.74H1351.74H1351.74H1351.74H1351.74H1351.74H1351.74H1351.74H1351.75H1351.75H1351.75H1351.75H1351.75H1351.75H1351.75H1351.75H1351.75H1351.75H1351.76H1351.76H1351.76H1351.76H1351.76H1351.76H1351.76H1351.76H1351.76H1351.76H1351.77H1351.77H1351.77H1351.77H1351.77H1351.77H1351.77H1351.77H1351.77H1351.77H1351.78H1351.78H1351.78H1351.78H1351.78H1351.78H1351.78H1351.78H1351.79H1351.79H1351.79H1351.79H1351.79H1351.79H1351.79H1351.79H1351.79H1351.8H1351.8H1351.8H1351.8H1351.8H1351.8H1351.8H1351.8H1351.81H1351.81H1351.81H1351.81H1351.81H1351.81H1351.81H1351.81H1351.82H1351.82H1351.82H1351.82H1351.82H1351.82H1351.82H1351.82H1351.83H1351.83H1351.83H1351.83H1351.83H1351.83H1351.83H1351.84H1351.84H1351.84H1351.84H1351.84H1351.84H1351.84H1351.85H1351.85H1351.85H1351.85H1351.85H1351.85H1351.85H1351.86H1351.86H1351.86H1351.86H1351.86H1351.86H1351.86H1351.87H1351.87H1351.87H1351.87H1351.87H1351.87H1351.87H1351.88H1351.88H1351.88H1351.88H1351.88H1351.88H1351.89H1351.89H1351.89H1351.89H1351.89H1351.89H1351.9C1358.9 428.047 1360.99 437.442 1354.94 441.488L1354.93 441.496C1349.87 444.986 1344.16 447.539 1338.69 449.797C1285.05 470.651 1245.73 447.653 1202.99 422.656L1202.24 422.22C1159.26 397.083 1112.86 370.282 1045.57 385.736L1045.71 387.706C1093.41 391.896 1115.27 402.03 1135.98 414.046C1138.84 415.708 1141.69 417.409 1144.58 419.136C1162.67 429.945 1182.52 441.802 1219.88 452.013C1224.08 453.175 1225.87 456.521 1225.56 459.638C1225.24 462.742 1222.82 465.777 1218.12 466.218L1218.11 466.219C1192.6 468.795 1174.1 466.414 1159.72 461.401C1145.35 456.389 1135.01 448.721 1125.86 440.602C1122.99 438.059 1120.24 435.465 1117.5 432.893C1102.82 419.074 1088.82 405.892 1061.95 404.787L1061.95 404.786C1044.8 404.125 1028.99 413.391 1020.44 428.57C1007.93 450.409 1004.2 471.673 1003.39 490.248C1002.98 499.529 1003.31 508.145 1003.63 515.809C1003.65 516.216 1003.66 516.621 1003.68 517.023C1003.98 524.202 1004.25 530.469 1003.87 535.683L1003.86 535.843L1003.9 535.997C1005.36 541.835 1006.99 547.63 1008.63 553.407L1008.76 553.86C1010.35 559.491 1011.94 565.106 1013.37 570.758C1016.3 582.363 1018.54 594.076 1018.7 606.248L1018.7 606.254C1019.02 623.324 1017.41 640.986 1011.98 657.329L1011.98 657.343L1011.97 657.356L1011.96 657.379C1001.65 691.641 991.343 725.9 980.715 760.481C978.391 767.813 978.719 775.8 981.373 782.793C981.535 783.226 981.697 783.658 981.859 784.089C985.568 793.995 989.141 803.534 990.665 813.949L990.67 813.98L990.676 814.01C994.498 832.204 991.962 851.082 985.57 868.732C972.034 902.025 958.504 935.32 944.968 968.932C944.433 970.206 943.931 971.478 943.434 972.738C941.524 977.573 939.684 982.232 936.348 986.171C935.065 986.352 934.247 986.074 933.693 985.633C933.058 985.126 932.602 984.271 932.326 983.107C931.77 980.765 932.061 977.699 932.379 975.607L932.383 975.584L932.385 975.562C941.248 892.082 949.821 808.602 958.394 725.123C962.6 684.166 966.806 643.21 971.046 602.254L981.322 572.615L982.537 569.111L979.725 571.529C969.457 580.362 962.059 590.896 955.588 601.892C952.639 606.903 949.875 612.023 947.123 617.122C946.857 617.615 946.591 618.108 946.325 618.601C943.303 624.194 940.273 629.75 936.986 635.14L936.922 635.245L936.885 635.362C936.214 637.51 934.263 638.808 932.291 638.945C930.416 639.076 928.591 638.159 927.888 635.87C928.425 626.93 929.234 617.991 930.044 609.033C930.208 607.216 930.373 605.398 930.535 603.578C931.501 592.754 932.388 581.907 932.712 571.054C933.151 566.058 933.474 561.063 933.796 556.085C934.899 539.035 935.991 522.171 941.673 506.039C945.819 495.49 951.884 485.955 958.509 476.73C961.229 472.942 964.062 469.184 966.893 465.428C970.911 460.096 974.926 454.77 978.607 449.375C999.302 422.772 1014.81 392.611 1025.48 360.841L1025.48 360.837C1031.85 341.661 1045.24 324.716 1062.43 314.171L1062.44 314.168L1062.44 314.164C1103.18 288.378 1132.48 264.926 1164.75 239.09C1180.26 226.673 1196.46 213.705 1214.95 199.663C1216.76 198.292 1218.56 196.932 1220.34 195.583C1244.41 177.355 1265.84 161.129 1284.09 148.195C1303.71 134.29 1319.58 124.252 1331.06 119.613L1331.06 119.61C1357.43 108.759 1390.49 103.515 1428.21 99.9139C1446.1 98.2065 1465.01 96.8704 1484.72 95.4773L1487.92 95.2514C1508.78 93.7757 1530.53 92.2114 1552.87 90.058C1642.22 81.4454 1741.26 63.403 1832.66 3.79483C1834.44 2.78603 1836.48 3.27413 1837.77 4.83103C1839.05 6.37701 1839.64 9.09874 1838 12.5328L1837.99 12.5643L1837.97 12.5967C1829.46 34.2023 1820.16 51.8711 1807.01 67.1112C1793.86 82.3466 1776.82 95.2037 1752.74 107.121C1683.33 141.45 1608.75 147.673 1542.53 147.794C1523.27 147.829 1504.77 147.35 1487.31 146.897C1474.71 146.571 1462.65 146.258 1451.23 146.162C1424.05 145.935 1400.58 146.94 1382.62 151.994C1338.63 164.326 1318.21 179.276 1300.74 193.236L1301.69 194.961L1301.36 194.017Z" stroke="url(#paint10_linear_1_86)" stroke-width="2"/>
<path d="M934.956 219.46C945.467 228.85 947.952 237.695 947.697 244.291C947.582 247.271 946.908 249.754 946.207 251.578C946.296 251.514 946.387 251.449 946.48 251.382C948.47 249.948 951.049 247.905 953.433 245.454C958.272 240.479 961.919 234.245 959.178 228.099L959.172 228.089C959.152 228.053 959.119 227.999 959.075 227.926C958.986 227.781 958.85 227.564 958.666 227.285C958.297 226.725 957.733 225.916 956.965 224.934C955.429 222.968 953.079 220.312 949.837 217.575C943.358 212.105 933.314 206.308 919.053 205.036C908.225 204.078 900.38 205.438 895.269 207.017C895.042 207.087 894.82 207.157 894.603 207.228C897.015 206.981 899.891 206.835 903.072 206.961C912.411 207.331 924.422 210.047 934.956 219.46ZM934.956 219.46L934.29 220.206L934.956 219.46Z" stroke="url(#paint11_linear_1_86)" stroke-width="2"/>
<path d="M957.381 224.766C957.415 224.798 957.448 224.829 957.48 224.859C957.471 224.872 957.463 224.884 957.454 224.897C957.132 225.37 956.659 226.062 956.058 226.939C954.857 228.693 953.143 231.188 951.095 234.146C946.998 240.064 941.563 247.838 936.21 255.267C930.853 262.703 925.593 269.771 921.84 274.288C920.431 275.985 919.272 277.275 918.419 278.09C919.268 275.253 920.759 271.744 922.538 267.741C922.928 266.863 923.331 265.962 923.743 265.042C925.398 261.347 927.195 257.336 928.848 253.191C932.961 242.877 936.295 231.477 934.299 221.625L934.297 221.614L934.294 221.604C933.668 218.826 931.941 216.494 929.81 214.578C927.677 212.66 925.081 211.107 922.596 209.892C921.91 209.557 921.231 209.246 920.568 208.959C931.935 210.468 940.68 213.976 946.853 217.365C950.623 219.435 953.434 221.462 955.297 222.965C956.229 223.717 956.923 224.337 957.381 224.766ZM917.273 278.997C917.273 278.997 917.276 278.996 917.281 278.995C917.276 278.997 917.273 278.998 917.273 278.997ZM918.095 279.524C918.095 279.524 918.094 279.519 918.094 279.507C918.095 279.517 918.096 279.523 918.095 279.524Z" stroke="url(#paint12_linear_1_86)" stroke-width="2"/>
</g>
<defs>
<linearGradient id="paint0_linear_1_86" x1="342.908" y1="147.605" x2="342.908" y2="238.622" gradientUnits="userSpaceOnUse">
<stop stop-color="white" stop-opacity="0.28"/>
<stop offset="1" stop-color="white" stop-opacity="0.02"/>
</linearGradient>
<linearGradient id="paint1_linear_1_86" x1="405.822" y1="247.465" x2="405.822" y2="331.693" gradientUnits="userSpaceOnUse">
<stop stop-color="white" stop-opacity="0.28"/>
<stop offset="1" stop-color="white" stop-opacity="0.02"/>
</linearGradient>
<linearGradient id="paint2_linear_1_86" x1="478.451" y1="307.17" x2="478.451" y2="405.245" gradientUnits="userSpaceOnUse">
<stop stop-color="white" stop-opacity="0.28"/>
<stop offset="1" stop-color="white" stop-opacity="0.02"/>
</linearGradient>
<linearGradient id="paint3_linear_1_86" x1="679.549" y1="382.319" x2="679.549" y2="462.724" gradientUnits="userSpaceOnUse">
<stop stop-color="white" stop-opacity="0.28"/>
<stop offset="1" stop-color="white" stop-opacity="0.02"/>
</linearGradient>
<linearGradient id="paint4_linear_1_86" x1="578.661" y1="354.64" x2="578.661" y2="441.975" gradientUnits="userSpaceOnUse">
<stop stop-color="white" stop-opacity="0.28"/>
<stop offset="1" stop-color="white" stop-opacity="0.02"/>
</linearGradient>
<linearGradient id="paint5_linear_1_86" x1="327.298" y1="0.773437" x2="327.298" y2="238.3" gradientUnits="userSpaceOnUse">
<stop stop-color="white" stop-opacity="0.28"/>
<stop offset="1" stop-color="white" stop-opacity="0.02"/>
</linearGradient>
<linearGradient id="paint6_linear_1_86" x1="830.685" y1="625.712" x2="830.685" y2="825.44" gradientUnits="userSpaceOnUse">
<stop stop-color="white" stop-opacity="0.28"/>
<stop offset="1" stop-color="white" stop-opacity="0.02"/>
</linearGradient>
<linearGradient id="paint7_linear_1_86" x1="848.633" y1="460.618" x2="848.633" y2="645.456" gradientUnits="userSpaceOnUse">
<stop stop-color="white" stop-opacity="0.28"/>
<stop offset="1" stop-color="white" stop-opacity="0.02"/>
</linearGradient>
<linearGradient id="paint8_linear_1_86" x1="868.152" y1="171.69" x2="868.152" y2="420.934" gradientUnits="userSpaceOnUse">
<stop stop-color="white" stop-opacity="0.28"/>
<stop offset="1" stop-color="white" stop-opacity="0.02"/>
</linearGradient>
<linearGradient id="paint9_linear_1_86" x1="947.413" y1="174.252" x2="947.413" y2="442.883" gradientUnits="userSpaceOnUse">
<stop stop-color="white" stop-opacity="0.28"/>
<stop offset="1" stop-color="white" stop-opacity="0.02"/>
</linearGradient>
<linearGradient id="paint10_linear_1_86" x1="1383.44" y1="2.26611" x2="1383.44" y2="987.226" gradientUnits="userSpaceOnUse">
<stop stop-color="white" stop-opacity="0.28"/>
<stop offset="1" stop-color="white" stop-opacity="0.02"/>
</linearGradient>
<linearGradient id="paint11_linear_1_86" x1="924.183" y1="203.718" x2="924.183" y2="254.477" gradientUnits="userSpaceOnUse">
<stop stop-color="white" stop-opacity="0.28"/>
<stop offset="1" stop-color="white" stop-opacity="0.02"/>
</linearGradient>
<linearGradient id="paint12_linear_1_86" x1="935.733" y1="207.274" x2="935.733" y2="279.979" gradientUnits="userSpaceOnUse">
<stop stop-color="white" stop-opacity="0.28"/>
<stop offset="1" stop-color="white" stop-opacity="0.02"/>
</linearGradient>
</defs>
</svg>
