<svg width="182" height="127" viewBox="0 0 182 127" fill="none" xmlns="http://www.w3.org/2000/svg">
<rect width="182" height="127" rx="6" fill="#1E1E20"/>
<path d="M30.2779 55.1554C31.543 52.7463 34.0882 50.9731 36.7829 51.1127C38.2821 51.154 39.8262 52.0174 40.404 53.5063C40.7228 54.6695 40.7676 55.8844 40.8821 57.0786C41.3503 63.1686 41.963 69.2431 42.471 75.3279C39.5622 75.3072 36.6534 75.3744 33.7445 75.2917C33.7047 74.3301 33.635 73.3789 33.5951 72.4225C30.5568 72.4225 27.5185 72.407 24.4801 72.4276C23.8824 73.3685 23.2847 74.3146 22.7069 75.271C21.138 75.3279 19.569 75.3382 18 75.3279C21.9199 68.4986 26.2135 61.902 30.2779 55.1554ZM27.4686 67.6611C29.3464 67.7128 31.2192 67.7025 33.0921 67.6973C32.9078 65.0245 32.6388 62.3569 32.4296 59.6893C30.5966 62.2122 29.0077 64.9366 27.4686 67.6611Z" fill="#ACACAC"/>
<path d="M45.0565 51.0823C47.9554 51.1133 50.8493 51.0771 53.7482 51.1133C54.1018 56.3296 54.6945 61.52 55.0731 66.7312C55.8501 65.842 56.4727 64.8339 57.0754 63.8154C59.6156 59.5659 62.2655 55.3784 64.8157 51.134C72.8249 51.0564 80.8292 51.1236 88.8335 51.0978C88.4948 52.6901 88.0714 54.2565 87.6231 55.8178C85.4116 55.9522 83.1303 55.5386 80.9587 56.0659C79.1407 62.3679 77.6613 68.7732 75.8782 75.0804C73.2832 75.6749 70.5038 75.1372 67.8391 75.3337C69.3582 68.8146 71.4004 62.4299 72.7502 55.8695C70.7628 55.8126 68.7705 55.823 66.7831 55.8333C63.4409 61.1737 60.1934 66.5813 56.8662 71.932C55.5363 74.0206 53.1953 75.4991 50.7347 75.3285C48.832 75.344 46.8646 73.8138 46.8895 71.72C46.2768 64.8442 45.6293 57.9632 45.0565 51.0823Z" fill="#ACACAC"/>
<path d="M88.6833 55.3109C89.0967 51.9712 92.7677 50.9011 95.537 51.0872C99.7508 51.1182 103.97 51.0872 108.183 51.1079C107.82 52.6846 107.411 54.2459 107.028 55.8175C103.561 55.8589 100.095 55.7658 96.6328 55.8796C96.0899 57.4874 95.6715 59.1365 95.3129 60.796C98.7547 60.827 102.196 60.7753 105.643 60.8219C105.245 62.3986 104.831 63.9702 104.448 65.547C101.026 65.6814 97.5941 65.4953 94.1772 65.6401C93.3355 67.1393 93.1811 68.9281 92.8125 70.5927C96.2393 70.6651 99.6711 70.6031 103.098 70.6082C102.7 72.1643 102.271 73.7101 101.898 75.2714C97.619 75.3903 93.3405 75.3024 89.0619 75.3334C87.5826 75.3231 85.8741 75.3386 84.7534 74.165C83.9515 73.5395 84.2005 72.3918 84.4097 71.5336C85.8492 66.1312 87.2638 60.7185 88.6833 55.3109Z" fill="#ACACAC"/>
<path d="M107.337 61.2199C110.041 55.1248 116.422 50.7563 122.947 51.0872C125.741 51.1079 128.535 51.0924 131.324 51.1182C130.896 52.6381 130.488 54.158 130.149 55.7038C126.677 56.0967 123.156 55.497 119.704 56.0347C117.806 57.0272 116.93 59.2089 116.212 61.1527C115.505 63.4067 114.803 65.728 114.788 68.1164C114.743 69.2382 115.401 70.5824 116.626 70.5669C119.789 70.7271 122.967 70.5514 126.134 70.6341C125.756 72.1954 125.332 73.7411 124.904 75.2869C121.582 75.3851 118.255 75.3386 114.937 75.2972C111.889 75.3231 108.945 73.555 107.381 70.8616C105.718 67.9303 106.056 64.2287 107.337 61.2199Z" fill="#ACACAC"/>
<path d="M133.581 51.1493C136.261 51.0717 138.946 51.0872 141.625 51.1028C140.913 54.3649 139.912 57.5495 139.205 60.8064C140.953 60.8064 142.706 60.8012 144.455 60.8012C145.381 57.6115 146.163 54.3752 146.995 51.1544C149.679 51.0614 152.364 51.1028 155.049 51.1079C152.972 59.1728 150.84 67.2169 148.738 75.2766C146.058 75.3645 143.379 75.318 140.704 75.318C141.481 72.061 142.452 68.8557 143.184 65.5885C141.466 65.6143 139.748 65.5264 138.034 65.635C136.804 68.7213 136.311 72.1024 135.359 75.3025C132.675 75.3231 129.995 75.3231 127.315 75.318C129.348 67.2479 131.599 59.2348 133.581 51.1493Z" fill="#ACACAC"/>
<path d="M158.993 51.2061C160.896 50.4358 163.426 51.9144 163.322 54.1477C163.556 57.4409 158.998 59.9172 156.802 57.2599C155.009 55.1868 156.682 51.9092 158.993 51.2061ZM159.521 51.8161C157.315 52.1005 155.796 55.3316 157.554 57.0376C159.611 58.8832 163.078 56.5 162.595 53.8479C162.425 52.3797 160.846 51.4491 159.521 51.8161Z" fill="#ACACAC"/>
<path d="M159.125 54.9817L158.849 56.2208H158.316L159.011 53.1189H159.77C160.105 53.1189 160.361 53.1861 160.539 53.3205C160.717 53.4534 160.807 53.6585 160.807 53.9357C160.807 54.1691 160.741 54.3664 160.611 54.5277C160.482 54.6875 160.29 54.8042 160.033 54.8777L160.593 56.2208H160.009L159.543 54.9817H159.125ZM159.222 54.5616H159.498C159.753 54.5616 159.943 54.5086 160.069 54.4025C160.195 54.2964 160.258 54.1507 160.258 53.9654C160.258 53.8169 160.214 53.7101 160.126 53.6451C160.037 53.58 159.9 53.5475 159.714 53.5475H159.447L159.222 54.5616Z" fill="#ACACAC"/>
</svg>
