<svg width="182" height="127" viewBox="0 0 182 127" fill="none" xmlns="http://www.w3.org/2000/svg">
<rect width="182" height="127" rx="6" fill="#1E1E20"/>
<path d="M116.537 69.8788C118.921 69.1691 120.319 67.0785 120.319 64.2211C120.319 62.4689 119.852 61.0906 118.907 60.0608C116.155 57.0583 111.479 58.3558 110.313 62.4456C109.835 64.1214 109.836 64.2493 110.335 66.0784C110.781 67.7158 112.191 69.4122 113.312 69.6587C113.644 69.7319 114.133 69.8872 114.399 70.0039C115.071 70.2992 115.137 70.2953 116.537 69.8788H116.537ZM112.21 83.1024C109.705 82.2676 107.44 80.3003 106.253 77.9274C105.912 77.2466 106.084 77.1058 108.327 76.2272C109.906 75.6085 110.412 75.5398 110.412 75.944C110.412 76.5308 111.915 78.107 112.945 78.6011C115.007 79.5894 117.718 78.9967 119.004 77.2764C119.598 76.4826 120.127 74.3716 120.03 73.1812L119.979 72.5487L119.001 73.2438C117.611 74.2325 115.311 74.6674 113.432 74.297C111.185 73.8539 109.761 73.0905 108.254 71.5192C106.662 69.8598 105.976 68.5156 105.477 66.0737C104.477 61.1826 107.521 55.9491 112.27 54.3941C114.682 53.6041 118.065 54.1128 119.492 55.4802L120.041 56.0058L120.12 55.3028L120.198 54.5998H122.373H124.548L124.619 64.4578C124.693 74.8151 124.582 76.231 123.529 78.4339C122.486 80.615 120.463 82.3327 117.978 83.147C116.41 83.6611 113.827 83.6411 112.21 83.1024Z" fill="#ACACAC"/>
<path d="M75.1959 69.0945C77.0666 67.7723 77.9797 64.8986 77.3198 62.4105C76.7698 60.3369 74.4303 58.4196 72.4502 58.4196C69.2563 58.4196 66.9329 60.8242 66.9204 64.1426C66.9104 66.7879 68.5161 69.2276 70.6328 69.7835C72.0057 70.1441 74.1741 69.8167 75.1959 69.0945ZM70.3506 74.288C66.5235 73.5923 63.7471 71.0449 62.4393 67.0291C61.8351 65.1741 62.0364 61.9612 62.8708 60.1416C64.6669 56.2244 68.0832 53.9758 72.2178 53.9896C80.0961 54.0157 84.7563 62.1748 81.0546 69.4609C79.996 71.5445 76.9734 73.7663 74.5887 74.2136C72.4553 74.6137 72.1705 74.6187 70.3506 74.288Z" fill="#ACACAC"/>
<path d="M138.682 63.2684C139.574 62.8635 139.244 62.9734 139.401 62.9691C139.558 62.9648 140.564 62.523 141.425 62.1163C142.287 61.7097 143.164 61.377 143.375 61.377C143.587 61.377 142.344 61.9227 142.344 61.8153C142.344 61.7078 144.358 60.7786 145.09 60.5249C146.383 60.0765 146.408 60.0502 145.996 59.586C144.779 58.2142 142.318 57.9407 140.681 58.9952C139.353 59.8501 138.294 61.3018 138.089 62.5476C137.906 63.6652 137.817 63.6605 138.682 63.2684ZM141.222 74.2837C137.401 73.3694 134.897 70.9087 133.628 66.8237C133.285 65.7165 133.296 62.5017 133.648 61.3944C135.13 56.7288 138.497 53.9834 142.738 53.9834C145.159 53.9834 147.159 54.822 148.896 56.5656C150.138 57.8123 151.734 60.5374 151.734 61.4124C151.734 61.9784 151.444 62.1493 148.471 63.34C146.081 64.2975 144.927 64.7798 143.034 65.6131C142.702 65.7593 142.213 65.969 141.947 66.0791C141.681 66.1891 140.974 66.4926 140.376 66.7535C139.778 67.0145 139.136 67.2756 138.95 67.3338C138.37 67.5155 140.368 69.419 141.464 69.7277C143.617 70.3344 145.512 69.917 147.013 68.5053C147.579 67.9734 148.153 67.5382 148.289 67.5382C148.698 67.5382 151.725 69.6132 151.729 69.8971C151.738 70.4215 149.616 72.3984 148.214 73.173C146.928 73.8833 143.98 74.7285 143.034 74.6578C142.835 74.6429 142.019 74.4746 141.222 74.2837H141.222Z" fill="#ACACAC"/>
<path d="M43.5964 74.1805C40.6471 73.6997 37.8003 72.1076 35.3106 69.5464C33.563 67.7486 32.4141 65.8488 31.4511 63.1648C30.8389 61.4583 30.853 55.8331 31.4739 54.1067C33.4368 48.6484 37.1943 44.986 42.509 43.3509C44.1978 42.8313 49.5674 42.9042 51.0875 43.4673C53.3921 44.321 56.2136 45.9835 57.0018 46.9521C57.2906 47.307 57.1433 47.5484 55.7866 48.9445C54.9375 49.8182 54.1853 50.533 54.1151 50.5328C54.0448 50.5326 53.671 50.2551 53.2845 49.9161C51.2824 48.1601 47.4329 47.2313 44.5167 47.8008C41.1959 48.4493 38.4417 50.5941 36.8944 53.7365C36.12 55.3092 35.6171 55.4007 35.6171 58.666C35.6171 61.7683 36.1496 62.0894 36.7599 63.4178C37.1199 64.2014 38.0342 65.5052 38.7917 66.3152C41.556 69.2709 45.5965 70.4336 49.4618 69.3858C51.6303 68.7979 52.5593 68.2922 53.9128 66.9626C55.0965 65.7998 55.8678 64.359 56.1416 62.7992L56.3029 61.8801L51.3995 61.8134L46.4962 61.7467V59.4454V57.1441L53.504 57.1646C57.3582 57.1758 60.5783 57.1856 60.6596 57.1862C60.7409 57.187 60.9245 57.7814 61.0675 58.5076C61.6057 61.2412 60.6179 65.3817 58.7223 68.3375C57.161 70.772 55.4898 72.0859 51.9332 73.6751C50.4581 74.3343 46.1442 74.5958 43.5964 74.1805V74.1805Z" fill="#ACACAC"/>
<path d="M95.5033 69.7184C96.6277 69.4312 98.1362 67.9867 98.6892 66.6678C98.9107 66.1394 99.267 65.1224 99.2144 64.1062C99.1392 62.6553 98.8369 61.6239 98.5389 61.2558C97.28 59.7007 96.6208 59.1306 95.6972 58.7983C93.6288 58.054 91.7038 58.4611 90.1473 59.9722C87.1041 62.9266 88.2716 68.4117 92.235 69.7805C93.3707 70.1728 93.753 70.1655 95.5033 69.7184ZM91.334 74.1861C88.768 73.6339 86.0876 71.5525 84.872 69.168C82.8465 65.195 83.3611 60.5878 86.1868 57.398C90.2182 52.847 97.3248 52.8491 101.431 57.4024C104.965 61.3197 104.598 68.4308 100.687 71.8451C98.8234 73.4726 97.0087 74.2056 94.5647 74.3182C93.3793 74.3728 91.9255 74.3133 91.334 74.1861V74.1861Z" fill="#ACACAC"/>
<path d="M127.086 58.9125V43.8611L129.442 43.9316L131.798 44.0022V58.9125V73.8228L129.442 73.8933L127.086 73.9639V58.9125Z" fill="#ACACAC"/>
</svg>
