<svg width="182" height="127" viewBox="0 0 182 127" fill="none" xmlns="http://www.w3.org/2000/svg">
<rect width="182" height="127" rx="6" fill="#1E1E20"/>
<path d="M50.5075 49.5281C50.0905 48.8329 49.5469 48.2274 48.9065 47.7452C48.2596 47.2896 47.551 46.9352 46.8035 46.6933C45.9913 46.4196 45.1527 46.2373 44.3024 46.1495C43.3072 46.0496 42.3078 46.002 41.308 46.0069H32.6537C32.4531 45.9874 32.2507 46.0095 32.0586 46.072C31.8664 46.1345 31.6884 46.2361 31.5351 46.3708C31.3817 46.5055 31.2562 46.6705 31.1659 46.856C31.0756 47.0416 31.0224 47.2439 31.0094 47.451C31.0094 47.451 31.0094 47.5045 31.0094 47.5312V62.0082C32.2092 64.6603 34.2017 66.847 36.6952 68.2483V65.3422C36.6762 65.118 36.7004 64.8921 36.7662 64.6775C36.8321 64.4629 36.9384 64.2638 37.0791 64.0915C37.2198 63.9193 37.3921 63.7774 37.5861 63.6738C37.7801 63.5702 37.992 63.5071 38.2097 63.488H40.806C44.3485 63.488 47.0515 62.7244 48.9151 61.197C50.7787 59.6697 51.7249 57.4054 51.7537 54.4042C51.7568 53.5394 51.6579 52.6773 51.4595 51.8369C51.2616 51.0206 50.9404 50.2415 50.5075 49.5281ZM45.4361 56.9716C45.1343 57.5066 44.6856 57.9377 44.1466 58.2107C43.5625 58.498 42.9315 58.6704 42.2859 58.7188C41.5768 58.8098 40.8629 58.8544 40.1483 58.8525H37.6559C37.0587 58.8525 36.6866 58.3533 36.6866 57.6224V51.6497C36.678 51.5187 36.6976 51.3873 36.744 51.2649C36.7904 51.1426 36.8625 51.0324 36.9552 50.9421C37.0478 50.8518 37.1586 50.7837 37.2797 50.7427C37.4009 50.7017 37.5293 50.6887 37.6559 50.7048H40.1483C40.956 50.7048 41.7176 50.7285 42.433 50.7761C43.0706 50.8076 43.6964 50.965 44.2764 51.2396C44.81 51.4843 45.2552 51.8961 45.5486 52.4163C45.8799 53.1139 46.0319 53.8874 45.99 54.6628C46.0068 55.4665 45.8156 56.2603 45.4361 56.9627V56.9716ZM36.7039 69.1219C34.5697 68.3288 32.6272 67.0699 31.0094 65.4314V72.4292C30.9912 72.5625 30.9995 72.6982 31.0336 72.8281C31.0677 72.9581 31.1269 73.0796 31.2077 73.1853C31.2886 73.2911 31.3893 73.3789 31.504 73.4435C31.6186 73.5081 31.7447 73.5482 31.8748 73.5613H35.7865C36.8251 73.5613 36.7039 72.4203 36.7039 72.4203V69.1219ZM90.4644 53.6287H87.0892C86.7671 53.607 86.4479 53.7034 86.1881 53.9008C85.9284 54.0982 85.7448 54.3839 85.6699 54.7073L81.7495 65.8325C81.7495 65.8325 78.2878 55.6968 78.0282 54.9124C77.9552 54.5504 77.7645 54.225 77.4875 53.9899C77.2105 53.7548 76.8639 53.6243 76.505 53.6198H73.3981C72.2904 53.6198 72.2904 54.5112 72.4375 54.8589C72.5846 55.2065 76.8339 67.2053 78.4955 71.7963C78.7572 72.3614 78.9407 72.9615 79.0407 73.5791C78.933 74.1887 78.7094 74.7703 78.383 75.2907C78.2567 75.5113 78.1119 75.7201 77.9503 75.9147C81.1524 74.9341 84.8737 71.3595 86.743 67.4995C88.6297 62.1509 91.1134 55.0193 91.226 54.6539C91.3471 54.0922 91.3471 53.6287 90.4644 53.6287ZM75.4232 77.0023C75.1337 76.9943 74.8448 76.9705 74.5578 76.931C74.203 76.8775 73.5279 76.931 73.5279 77.555V80.2293C73.5279 81.2545 74.0126 81.3258 74.2635 81.3971C75.0651 81.5782 75.8835 81.6679 76.7041 81.6645C77.6737 81.6908 78.6362 81.4864 79.5167 81.0673C80.3222 80.6481 81.0375 80.066 81.6197 79.3557C82.2799 78.5782 82.8385 77.7151 83.2813 76.7883C83.7602 75.8018 84.216 74.7113 84.6487 73.5167L85.1506 72.0994C84.1467 73.1245 79.7157 77.4302 75.4232 77.0023ZM70.3172 56.829C70.1333 56.3785 69.8822 55.9604 69.5729 55.5899C69.2602 55.2466 68.9052 54.9469 68.5171 54.6984C68.0978 54.4043 67.6514 54.1535 67.1843 53.9496C66.7088 53.7598 66.2198 53.6078 65.7217 53.495C65.1518 53.3651 64.5732 53.2787 63.9909 53.2365C63.3678 53.1711 62.6697 53.1384 61.8965 53.1384C56.7386 53.1384 53.8019 54.8143 53.0865 58.1661C53.056 58.2911 53.0521 58.4213 53.0751 58.5479C53.0982 58.6746 53.1476 58.7945 53.22 58.8996C53.2924 59.0047 53.386 59.0923 53.4944 59.1565C53.6028 59.2207 53.7235 59.26 53.8481 59.2715H57.0242C57.8896 59.2715 57.8896 58.9952 58.2185 58.2285C58.3626 57.8112 58.6211 57.4458 58.9627 57.1766C59.7743 56.6371 60.734 56.3836 61.6975 56.4546C62.596 56.36 63.4985 56.59 64.2505 57.1053C64.8241 57.6568 65.1631 58.4193 65.1938 59.2269C65.1938 60.3323 64.865 61.0633 63.5322 61.0633C60.3734 60.9474 56.9809 61.3129 55.0683 62.445C54.1268 63.037 53.354 63.8749 52.8281 64.8737C52.3022 65.8725 52.0421 66.9967 52.0739 68.1324C52.0522 69.0171 52.2268 69.8952 52.5845 70.6998C52.9215 71.399 53.4101 72.009 54.0125 72.4827C54.6448 73.0139 55.3749 73.4081 56.1588 73.6416C57.0443 73.8885 57.9588 74.0085 58.8762 73.9981C60.1104 74.0179 61.3399 73.8374 62.5197 73.4633C63.5624 73.0232 64.5479 72.4513 65.4535 71.7606V72.3846C65.4535 72.9997 65.6352 73.5524 66.3189 73.5524H69.997C70.7412 73.5524 70.9143 73.0086 70.9143 72.3311V60.6622C70.9188 59.9343 70.8696 59.2072 70.7672 58.4871C70.6855 57.9171 70.5343 57.36 70.3172 56.829ZM65.289 68.2929C65.289 68.2929 64.3371 70.3432 60.9619 70.3432C60.1526 70.3816 59.3524 70.1537 58.6771 69.6925C58.38 69.4547 58.1451 69.1443 57.994 68.7894C57.8429 68.4344 57.7802 68.0462 57.8117 67.66C57.7745 67.1413 57.8911 66.6232 58.1461 66.1743C58.4011 65.7254 58.7825 65.3668 59.2397 65.1461C60.605 64.6058 62.0619 64.3542 63.5236 64.4062C63.7472 64.3715 63.9756 64.387 64.1929 64.4518C64.4101 64.5166 64.6112 64.6291 64.7823 64.7816C64.9533 64.9341 65.0903 65.1229 65.1838 65.3351C65.2772 65.5473 65.3249 65.7778 65.3237 66.0108L65.289 68.2929Z" fill="#ACACAC"/>
<path d="M149.4 60.7869C149.827 61.4933 150.053 62.3085 150.053 63.1403C150.053 63.9721 149.827 64.7873 149.4 65.4937C148.535 66.8487 143.818 72.0369 142.26 73.7039C140.91 75.148 139.084 76.61 137.276 76.61H99.8111C94.7397 76.61 94.4368 74.8271 94.4368 70.8513V54.636C94.4368 50.5621 95.6051 49.3765 99.0755 49.3765H137.362C139.154 49.3765 140.755 50.3214 142.555 52.2291C144.13 53.8604 148.777 59.8242 149.4 60.7869Z" fill="#ACACAC"/>
<path d="M102.944 55.6434V55.5453C102.944 55.0194 102.944 54.5112 102.079 54.5112H98.9372C98.2016 54.5112 98.167 54.9213 98.167 55.5631V59.8421C99.4062 58.065 101.045 56.6242 102.944 55.6434Z" fill="#1E1E20"/>
<path d="M123.982 71.1184V70.8867V60.5638C123.982 56.2433 122.13 54.083 118.426 54.083C117.395 54.0956 116.388 54.4043 115.518 54.9744C114.56 55.5903 113.703 56.3608 112.982 57.2565C112.656 56.2884 112.022 55.4622 111.182 54.912C110.228 54.3701 109.147 54.108 108.058 54.1543C106.456 54.1605 104.902 54.7121 103.636 55.7233C103.359 56.0085 98.1576 60.1805 98.1576 64.5307V71.1363C98.1576 71.3413 98.0538 72.1436 98.9279 72.1436H102.191C103.203 72.1436 103.108 71.4572 103.108 71.1719V60.4746C103.653 59.7169 104.77 57.9073 106.613 57.9073C106.908 57.8797 107.204 57.9337 107.472 58.0638C107.74 58.1938 107.969 58.3953 108.136 58.6472C108.506 59.4083 108.668 60.2589 108.603 61.1076V69.4425V71.1541C108.603 71.3591 108.5 72.1614 109.374 72.1614H112.602C113.614 72.1614 113.519 71.475 113.519 71.1898V70.958V60.439C114.107 59.6813 115.25 57.8716 117.024 57.8716C117.322 57.8465 117.622 57.9014 117.893 58.0311C118.165 58.1608 118.399 58.3608 118.573 58.6115C118.949 59.3707 119.114 60.2222 119.049 61.0719V69.4069V71.1184C119.049 71.3235 118.945 72.1258 119.819 72.1258H123.082C124.103 72.0723 123.982 71.3948 123.982 71.1184Z" fill="#1E1E20"/>
<path d="M141.975 66.9198C141.421 68.4554 140.405 69.7686 139.076 70.6681C137.746 71.5676 136.173 72.0065 134.584 71.9208C129.6 71.9208 126.276 68.4264 126.276 63.1847C126.276 57.943 129.738 54.2703 134.411 54.2703C139.085 54.2703 142.2 57.6043 142.399 62.9796C142.399 63.6661 142.235 64.2722 141.395 64.2722H130.82C130.889 67.1516 132.231 68.7294 134.619 68.7294C135.253 68.7458 135.879 68.5749 136.422 68.2368C136.964 67.8988 137.402 67.4078 137.683 66.8218C137.793 66.6559 137.942 66.521 138.116 66.4292C138.29 66.3374 138.483 66.2916 138.678 66.2958H141.404C141.486 66.2918 141.567 66.3069 141.643 66.3398C141.718 66.3728 141.785 66.4228 141.84 66.4862C141.894 66.5495 141.933 66.6246 141.955 66.7059C141.977 66.7871 141.981 66.8724 141.967 66.9555L141.975 66.9198ZM134.429 57.5953C132.447 57.5953 131.105 59.0127 130.811 61.3483H137.908C137.726 59.3069 136.653 57.5953 134.429 57.5953Z" fill="#1E1E20"/>
</svg>
