<svg width="182" height="127" viewBox="0 0 182 127" fill="none" xmlns="http://www.w3.org/2000/svg">
<rect width="182" height="127" rx="6" fill="#1E1E20"/>
<path fill-rule="evenodd" clip-rule="evenodd" d="M82.6759 53.1318H82.7687C82.7819 53.1453 82.8085 53.1589 82.8615 53.1589C83.2327 53.2673 83.5377 53.3892 83.763 53.5518C83.9884 53.7009 84.1741 53.8635 84.3066 54.0261C84.4392 54.1887 84.5188 54.3648 84.5718 54.541C84.6248 54.7171 84.6646 54.8662 84.6911 55.0152C84.7176 55.232 84.8104 55.3946 84.943 55.5301C85.0889 55.6656 85.248 55.7198 85.4468 55.7198H87.1969C87.4223 55.7198 87.6212 55.6385 87.7803 55.4623C87.9261 55.2862 87.9924 55.083 87.9792 54.8662C87.8996 53.4028 87.303 52.1968 86.1893 51.2619C85.3673 50.5573 84.3066 50.1102 82.9941 49.8934C82.7554 49.8527 82.5433 49.9069 82.3709 50.056C82.1721 50.2186 82.0792 50.4354 82.0792 50.6793V52.3459C82.0792 52.5491 82.1323 52.7117 82.2516 52.8608C82.3444 52.9827 82.4903 53.0911 82.6759 53.1318ZM86.4147 58.2942C85.8976 57.942 85.2745 57.6439 84.5851 57.4C84.3597 57.3187 84.121 57.2509 83.8824 57.1696C83.6305 57.0883 83.3653 57.0206 83.0604 56.9393L82.9278 56.8986C82.8482 56.8851 82.7554 56.858 82.6361 56.8309C82.3046 56.7496 81.9864 56.6683 81.6682 56.587C81.35 56.5057 81.0451 56.4244 80.7269 56.3431C80.6208 56.316 80.528 56.2889 80.422 56.2618C80.3292 56.2347 80.2231 56.2076 80.117 56.1805C79.9579 56.1263 79.7856 56.0585 79.6265 56.0043C79.4674 55.9501 79.3083 55.8959 79.1757 55.8282C78.7779 55.6656 78.473 55.4759 78.2609 55.2591C78.1548 55.1507 78.1018 55.0694 78.0753 55.0017C78.062 54.9475 78.0487 54.8933 78.0487 54.8662C78.0487 54.6494 78.0885 54.4055 78.1548 54.1616C78.1548 54.148 78.1681 54.1345 78.1681 54.1074C78.2476 53.9448 78.3537 53.7957 78.5128 53.6467C78.7117 53.4841 79.0166 53.3079 79.4541 53.1453C79.5337 53.1182 79.6132 53.0911 79.706 53.0776C79.7988 53.064 79.9049 53.0505 80.0242 53.0369C80.2231 53.0098 80.3689 52.915 80.4883 52.7659C80.6076 52.6169 80.6739 52.4407 80.6739 52.2375V50.598C80.6739 50.3676 80.5943 50.1779 80.422 50.0018C80.2364 49.8392 80.0375 49.7714 79.7988 49.7985C78.3935 49.9747 77.3063 50.4083 76.524 51.0722C75.3838 52.0207 74.827 53.2402 74.827 54.7578C74.827 55.8553 75.1584 56.736 75.8081 57.4135C76.3782 57.9962 77.0941 58.4704 77.9824 58.8498C78.2344 58.9582 78.5128 59.053 78.8045 59.1614C79.0961 59.2563 79.3878 59.3511 79.6928 59.4189C79.8519 59.4595 80.011 59.5002 80.1568 59.5408C80.3026 59.5815 80.4485 59.6086 80.5811 59.6492C80.939 59.7305 81.2838 59.8118 81.6285 59.9067C81.9732 60.0015 82.3046 60.0828 82.6361 60.1777L82.7024 60.2048C82.7422 60.2183 82.7952 60.2319 82.835 60.2454C82.8747 60.259 82.9278 60.2725 82.9941 60.2861C83.6835 60.5029 84.2403 60.7603 84.6779 61.0584C84.943 61.2346 85.0756 61.5056 85.0756 61.8307C85.0756 61.9527 85.0624 62.1017 85.0358 62.2914C85.0093 62.4676 84.9298 62.6573 84.7839 62.8334C84.6381 63.0096 84.3994 63.1857 84.0945 63.3483C83.7763 63.5109 83.3388 63.6193 82.7554 63.6735C82.5565 63.7006 82.3974 63.7955 82.2649 63.931C82.1323 64.08 82.066 64.2562 82.066 64.473V66.1125C82.066 66.3564 82.1588 66.5596 82.3312 66.7087C82.4637 66.8442 82.6361 66.9119 82.8482 66.9119H82.941C83.657 66.8306 84.3066 66.6951 84.9033 66.5054C85.4866 66.3022 86.0169 66.0447 86.4545 65.706C87.7405 64.7982 88.3769 63.4703 88.3769 61.7494C88.3769 61.0178 88.2046 60.3538 87.8731 59.7576C87.5416 59.2021 87.0511 58.7007 86.4147 58.2942ZM80.0507 63.6193C79.8121 63.5651 79.5867 63.4974 79.3878 63.4296C79.1889 63.3619 78.9901 63.267 78.8177 63.1722C78.1283 62.7657 77.7703 62.1695 77.7173 61.4107C77.704 61.1939 77.6245 61.0178 77.4654 60.8687C77.3195 60.7197 77.1339 60.6519 76.9218 60.6519H75.1584C74.9198 60.6519 74.7209 60.7468 74.5751 60.9229C74.416 61.0855 74.3497 61.3023 74.3762 61.5462C74.522 63.2399 75.185 64.5543 76.3517 65.5027C77.24 66.2209 78.3802 66.6816 79.7591 66.8984C79.7723 66.8984 79.7856 66.8984 79.7988 66.8984H80.0375C80.064 66.8984 80.1038 66.8984 80.1303 66.8848C80.4883 66.7358 80.6739 66.4783 80.6739 66.0989V64.4052C80.6739 64.2291 80.6208 64.0529 80.5015 63.9039C80.3954 63.7413 80.2496 63.6464 80.0507 63.6193ZM102.245 51.3703C101.158 50.3405 99.726 49.8121 97.9494 49.8121H91.2009C90.9888 49.8121 90.8164 49.8934 90.6573 50.056C90.4982 50.2186 90.4187 50.4083 90.4187 50.6251V52.2781C90.4187 52.4949 90.4982 52.6846 90.6573 52.8472C90.8164 53.0098 91.0021 53.0911 91.2009 53.0911H97.8301C98.7979 53.0911 99.5138 53.3079 99.9779 53.7551C100.415 54.1751 100.628 54.7849 100.628 55.5707C100.628 56.3837 100.415 56.9935 99.9779 57.3864C99.5404 57.82 98.8244 58.0504 97.8301 58.0504H91.2009C90.9888 58.0504 90.8032 58.1317 90.6573 58.2942C90.5115 58.4568 90.4187 58.6465 90.4187 58.8498V65.9363C90.4187 66.1531 90.4982 66.3428 90.6573 66.4919C90.8164 66.6545 90.9888 66.7358 91.2009 66.7358H92.8847C93.0969 66.7358 93.2692 66.6545 93.4283 66.4919C93.5874 66.3293 93.667 66.1396 93.667 65.9363V61.5056C93.667 61.3836 93.7598 61.2752 93.8923 61.2752H97.9494C99.7525 61.2752 101.184 60.7603 102.245 59.7441C103.332 58.6872 103.876 57.3051 103.876 55.5572C103.876 53.8093 103.332 52.4272 102.245 51.3703ZM113.965 50.3134C113.833 49.9747 113.594 49.8121 113.249 49.8121H111.102C110.942 49.8121 110.797 49.8527 110.664 49.934C110.531 50.0153 110.439 50.1373 110.386 50.3134L105.997 60.8281C105.891 61.0991 105.918 61.3565 106.063 61.5868C106.223 61.8307 106.448 61.9527 106.74 61.9527H108.622C108.781 61.9527 108.927 61.912 109.06 61.8307C109.192 61.7494 109.285 61.6275 109.338 61.4784L111.977 55.0423C112.056 54.8526 112.308 54.8526 112.388 55.0423L115.185 61.8714L115.729 63.2128C115.795 63.3619 115.689 63.5245 115.53 63.5245H105.427C105.268 63.5245 105.122 63.5651 104.99 63.66C104.857 63.7548 104.764 63.8768 104.711 64.0258L104.022 65.6789C103.902 65.9363 103.929 66.1802 104.088 66.4241C104.234 66.668 104.459 66.79 104.738 66.79H119.653C119.918 66.79 120.144 66.668 120.303 66.4241C120.449 66.1667 120.475 65.9092 120.369 65.6653L113.965 50.3134ZM127.701 50.0966C127.489 49.934 127.263 49.8798 127.025 49.934C125.434 50.2592 124.081 51.0451 122.968 52.2917C121.549 53.9177 120.846 55.9501 120.846 58.3891C120.846 60.8281 121.549 62.8605 122.968 64.4865C124.068 65.7195 125.42 66.519 127.025 66.8577H127.184C127.396 66.8577 127.568 66.8035 127.701 66.6816C127.9 66.5325 127.993 66.3293 127.993 66.0583V64.2562C127.993 64.0936 127.94 63.931 127.82 63.7819C127.714 63.6329 127.568 63.538 127.409 63.4974C126.587 63.2535 125.911 62.8334 125.381 62.2237C124.519 61.2481 124.095 59.9744 124.095 58.3891C124.095 56.8173 124.519 55.5436 125.381 54.5545C125.805 54.0803 126.309 53.7144 126.905 53.4299C127.025 53.3757 127.197 53.3215 127.396 53.2673C127.555 53.2131 127.701 53.1047 127.807 52.9556C127.913 52.8066 127.979 52.6575 127.979 52.4814V50.6928C127.993 50.4489 127.887 50.2457 127.701 50.0966ZM133.694 51.2077C132.699 50.4896 131.546 50.0289 130.273 49.8121C130.034 49.785 129.822 49.8527 129.65 50.0153C129.464 50.1508 129.385 50.3541 129.385 50.6115V52.2781C129.385 52.4949 129.438 52.6711 129.57 52.8201C129.69 52.9692 129.849 53.0505 130.061 53.0776C130.631 53.1724 131.175 53.3892 131.692 53.7144C132.368 54.1887 132.858 54.8255 133.19 55.6114C133.336 55.9366 133.588 56.0856 133.932 56.0856H135.722C135.987 56.0856 136.213 55.9772 136.372 55.7469C136.518 55.5165 136.557 55.2726 136.465 55.0152C135.908 53.4434 134.993 52.1697 133.694 51.2077ZM135.709 60.6655H133.919C133.574 60.6655 133.336 60.8281 133.177 61.1397C132.845 61.9256 132.355 62.5624 131.678 63.0367C131.201 63.3754 130.644 63.5787 130.021 63.6735C129.822 63.7006 129.676 63.7955 129.557 63.931C129.438 64.08 129.371 64.2562 129.371 64.473V66.1396C129.371 66.397 129.464 66.6003 129.637 66.7358C129.769 66.8713 129.942 66.939 130.154 66.939H130.26C131.546 66.7222 132.686 66.2615 133.68 65.5434C134.98 64.5814 135.894 63.3077 136.438 61.7223C136.531 61.4649 136.491 61.221 136.345 60.9907C136.199 60.7874 135.974 60.6655 135.709 60.6655ZM139.249 59.9338H149.484C149.524 59.9338 149.564 59.9202 149.604 59.9067C149.948 59.7034 150.121 59.446 150.121 59.1343V57.4271C150.121 57.1154 149.948 56.858 149.604 56.6547C149.564 56.6412 149.524 56.6276 149.484 56.6276H139.249C139.037 56.6276 138.851 56.7089 138.705 56.8715C138.559 57.0341 138.467 57.2238 138.467 57.4271V59.1343C138.467 59.3511 138.546 59.5408 138.705 59.6899C138.864 59.8389 139.037 59.9338 139.249 59.9338ZM150.863 50.056C150.717 49.8934 150.532 49.8121 150.306 49.8121H139.249C139.037 49.8121 138.851 49.8934 138.705 50.056C138.546 50.2186 138.467 50.3947 138.467 50.6115V52.4543C138.467 52.4949 138.48 52.5356 138.493 52.5762C138.692 52.915 138.944 53.0911 139.249 53.0911H150.306C150.532 53.0911 150.717 53.0098 150.863 52.8472C151.009 52.6846 151.088 52.4949 151.088 52.2646V50.6115C151.088 50.3947 151.022 50.2186 150.863 50.056ZM150.306 63.5109H139.249C138.944 63.5109 138.692 63.6871 138.493 64.0258C138.48 64.0665 138.467 64.1071 138.467 64.1478V65.9905C138.467 66.2073 138.546 66.3835 138.705 66.5461C138.864 66.7087 139.05 66.79 139.249 66.79H150.306C150.532 66.79 150.717 66.7087 150.863 66.5461C151.009 66.3835 151.088 66.2073 151.088 65.9905V64.3375C151.088 64.1071 151.009 63.9174 150.863 63.7548C150.717 63.5787 150.532 63.5109 150.306 63.5109Z" fill="#ACACAC"/>
<path fill-rule="evenodd" clip-rule="evenodd" d="M78.9896 75.5837C78.6449 75.9767 78.1145 76.2341 77.5444 76.2341C76.2982 76.2341 75.3303 75.2585 75.3303 73.8629C75.3303 72.4537 76.2982 71.4917 77.5444 71.4917C78.1145 71.4917 78.6449 71.7491 78.9896 72.1421C79.0559 72.2234 79.1752 72.2369 79.268 72.1692C79.3873 72.0879 79.4006 71.9253 79.3078 71.8169C78.8703 71.3562 78.2869 71.0716 77.5577 71.0716C76.0595 71.0716 74.8663 72.2098 74.8663 73.8629C74.8663 75.516 76.0462 76.6542 77.5577 76.6542C78.4062 76.6542 79.0161 76.2748 79.4934 75.6921L79.2813 75.5566C79.1752 75.5024 79.0559 75.5024 78.9896 75.5837ZM88.3897 71.573C85.8308 70.2451 83.9614 71.722 83.9614 73.8629C83.9614 75.4482 84.9823 76.6542 86.5335 76.6542C88.7609 76.6542 89.9011 74.1474 88.4825 71.6543C88.4692 71.6272 88.4295 71.5865 88.3897 71.573ZM86.5335 76.2341C85.2475 76.2341 84.4387 75.2179 84.4387 73.8629C84.4387 72.4808 85.2475 71.4917 86.5335 71.4917C87.8063 71.4917 88.6283 72.4944 88.6283 73.8629C88.6283 75.2179 87.8063 76.2341 86.5335 76.2341ZM99.7653 71.1529H99.7122C99.6194 71.1529 99.5266 71.2207 99.5001 71.3155L98.4792 75.1366C98.4262 75.3534 98.1212 75.3534 98.0549 75.1366L97.0208 71.3155C96.9943 71.2207 96.9147 71.1529 96.8087 71.1529H96.7291C96.6363 71.1529 96.5435 71.2207 96.517 71.3155L95.4696 75.1366C95.4033 75.3534 95.1116 75.3534 95.0453 75.1366L94.0244 71.3155C93.9979 71.2207 93.9184 71.1529 93.8123 71.1529H93.7593C93.6134 71.1529 93.5074 71.302 93.5471 71.4375L94.9393 76.3967C94.9658 76.4916 95.0586 76.5593 95.1514 76.5593H95.3237C95.4166 76.5593 95.5094 76.4916 95.5359 76.3967L96.5568 72.6841C96.6098 72.4673 96.9147 72.4673 96.981 72.6841L98.0019 76.3967C98.0284 76.4916 98.108 76.5593 98.214 76.5593H98.3864C98.4792 76.5593 98.572 76.4916 98.5985 76.3967L99.9774 71.4375C100.017 71.2884 99.9111 71.1529 99.7653 71.1529ZM108.86 71.573C106.302 70.2451 104.432 71.722 104.432 73.8629C104.432 75.4482 105.453 76.6542 107.004 76.6542C109.232 76.6542 110.372 74.1474 108.953 71.6543C108.927 71.6272 108.9 71.5865 108.86 71.573ZM107.004 76.2341C105.718 76.2341 104.909 75.2179 104.909 73.8629C104.909 72.4808 105.718 71.4917 107.004 71.4917C108.277 71.4917 109.099 72.4944 109.099 73.8629C109.099 75.2179 108.277 76.2341 107.004 76.2341ZM116.895 74.2423C117.531 74.0932 118.035 73.5648 118.035 72.7247C118.035 71.7356 117.332 71.1394 116.418 71.1394H114.668C114.548 71.1394 114.442 71.2342 114.442 71.3697V76.329C114.442 76.4509 114.535 76.5593 114.668 76.5593H114.681C114.8 76.5593 114.906 76.4645 114.906 76.329V74.5404C114.906 74.4184 114.999 74.31 115.132 74.31H115.967C116.033 74.31 116.113 74.3507 116.152 74.4049L117.505 76.4509C117.545 76.5187 117.611 76.5458 117.69 76.5458H118.128L116.802 74.581C116.683 74.4726 116.749 74.2829 116.895 74.2423ZM115.118 73.9036C114.999 73.9036 114.893 73.8087 114.893 73.6732V71.7898C114.893 71.6678 114.986 71.5594 115.118 71.5594H116.391C117.094 71.5594 117.571 72.0337 117.571 72.7247C117.571 73.4158 117.094 73.89 116.391 73.89H115.118V73.9036ZM124.386 73.5784L126.507 71.1529H126.03C125.964 71.1529 125.911 71.18 125.871 71.2342L123.763 73.6732C123.63 73.8223 123.378 73.7274 123.378 73.5242V71.3833C123.378 71.2613 123.285 71.1529 123.153 71.1529H123.14C123.02 71.1529 122.914 71.2478 122.914 71.3833V76.3425C122.914 76.4645 123.007 76.5729 123.14 76.5729H123.153C123.272 76.5729 123.378 76.478 123.378 76.3425V74.7572C123.378 74.703 123.405 74.6488 123.431 74.6081L123.802 74.2016C123.895 74.1068 124.041 74.1068 124.134 74.2016L126.096 76.478C126.136 76.5322 126.202 76.5593 126.255 76.5593H126.733L124.386 73.8765C124.32 73.7952 124.32 73.6732 124.386 73.5784ZM131.572 71.1529H131.559C131.439 71.1529 131.333 71.2478 131.333 71.3833V76.3425C131.333 76.4645 131.426 76.5729 131.559 76.5729H131.572C131.691 76.5729 131.797 76.478 131.797 76.3425V71.3833C131.784 71.2478 131.691 71.1529 131.572 71.1529ZM140.892 71.1529H140.879C140.76 71.1529 140.654 71.2478 140.654 71.3833V75.0688C140.654 75.2856 140.389 75.3805 140.256 75.2043L137.392 71.2613C137.352 71.2071 137.286 71.1665 137.22 71.1665H137.087C136.968 71.1665 136.862 71.2613 136.862 71.3968V76.3561C136.862 76.478 136.955 76.5864 137.087 76.5864H137.1C137.22 76.5864 137.326 76.4916 137.326 76.3561V72.6163C137.326 72.3995 137.591 72.3047 137.724 72.4808L140.601 76.4916C140.64 76.5458 140.707 76.5864 140.773 76.5864H140.892C141.012 76.5864 141.118 76.4916 141.118 76.3561V71.3968C141.104 71.2478 141.012 71.1529 140.892 71.1529ZM150.452 73.8765H148.211V74.2965H149.988C150.107 74.2965 150.213 74.3913 150.213 74.5268V75.5024C150.213 75.5702 150.186 75.6244 150.147 75.665C149.842 75.9496 149.311 76.2612 148.662 76.2612C147.415 76.2612 146.448 75.2721 146.448 73.8765C146.448 72.4673 147.415 71.5052 148.662 71.5052C149.272 71.5052 149.815 71.7491 150.2 72.1285C150.279 72.1963 150.385 72.2098 150.478 72.1421L150.664 72.0066C150.173 71.4375 149.55 71.0852 148.675 71.0852C147.19 71.0852 145.984 72.2098 145.984 73.8765C145.984 75.5431 147.177 76.6813 148.675 76.6813C149.47 76.6813 150.16 76.3425 150.624 75.8412C150.664 75.8005 150.69 75.7463 150.69 75.6786V74.1068C150.677 73.9713 150.584 73.8765 150.452 73.8765Z" fill="#ACACAC"/>
<path fill-rule="evenodd" clip-rule="evenodd" d="M44.8492 43.8638C46.785 42.7121 49.1847 42.7121 51.1204 43.8638L62.8274 50.7742C64.7764 51.9259 65.9696 54.0397 65.9696 56.3296V70.1504C65.9696 72.4403 64.7631 74.5541 62.8274 75.7058L51.1204 82.6162C49.1847 83.7679 46.785 83.7679 44.8492 82.6162L33.1422 75.7058C31.1932 74.5541 30 72.4403 30 70.1504V56.3296C30 54.0397 31.1932 51.9259 33.1422 50.7742L44.8492 43.8638ZM56.5828 66.0177H54.3952C53.9709 66.0177 53.6792 66.2074 53.4936 66.6003C53.0959 67.5624 52.486 68.3347 51.664 68.9038C51.0806 69.3103 50.4045 69.5678 49.6355 69.6762C49.3968 69.7168 49.2112 69.8252 49.0654 70.0013C48.9195 70.1775 48.84 70.3943 48.84 70.6517V72.6842C48.84 72.9958 48.946 73.2397 49.1714 73.4023C49.3305 73.5649 49.5427 73.6462 49.7946 73.6462H49.9272C51.4916 73.3888 52.8837 72.8197 54.1168 71.9525C55.7078 70.7872 56.8214 69.2426 57.4844 67.3049C57.5904 66.9933 57.5507 66.6952 57.3783 66.4107C57.1662 66.1668 56.901 66.0177 56.5828 66.0177ZM45.9629 52.9693C44.014 53.3622 42.3567 54.3107 41.0176 55.8283C39.2808 57.8065 38.419 60.2861 38.419 63.2535C38.419 66.221 39.2808 68.687 41.0176 70.6788C42.37 72.1829 44.014 73.1449 45.9629 73.5649H46.1486C46.4005 73.5649 46.6126 73.4972 46.7717 73.3481C47.0103 73.1584 47.1297 72.9146 47.1297 72.6029V70.4078C47.1297 70.2046 47.0634 70.0149 46.9175 69.8387C46.7849 69.6626 46.6126 69.5407 46.4137 69.4865C45.4061 69.1884 44.5841 68.6735 43.9344 67.9282C42.887 66.7358 42.37 65.1912 42.37 63.2535C42.37 61.343 42.887 59.7848 43.9344 58.5789C44.4515 58.0098 45.0746 57.5491 45.8038 57.2103C45.9497 57.1426 46.1486 57.0748 46.4137 57.0206C46.6126 56.9529 46.7849 56.8174 46.9175 56.6413C47.0501 56.4651 47.1297 56.2754 47.1297 56.0722V53.9042C47.1429 53.5925 47.0236 53.3351 46.785 53.159C46.533 52.9557 46.2546 52.888 45.9629 52.9693ZM49.1582 53.037C48.9328 53.1996 48.8267 53.4435 48.8267 53.7551V55.7876C48.8267 56.0451 48.893 56.2619 49.0521 56.438C49.198 56.6548 49.3968 56.7632 49.662 56.7903C50.3514 56.8987 51.0143 57.1561 51.664 57.5626C52.486 58.1317 53.0959 58.9041 53.4936 59.8661C53.6792 60.259 53.9709 60.4487 54.3952 60.4487H56.5828C56.9143 60.4487 57.1794 60.3132 57.3783 60.0287C57.5639 59.7442 57.6037 59.4596 57.4844 59.1344C56.8214 57.2103 55.7078 55.6657 54.1168 54.4868C52.897 53.6196 51.5049 53.0506 49.9272 52.7931C49.6355 52.7525 49.3836 52.8338 49.1582 53.037Z" fill="#ACACAC"/>
</svg>
