<svg width="182" height="127" viewBox="0 0 182 127" fill="none" xmlns="http://www.w3.org/2000/svg">
<rect width="182" height="127" rx="6" fill="#1E1E20"/>
<path fill-rule="evenodd" clip-rule="evenodd" d="M122.696 66.1115C122.696 65.7713 122.96 62.5172 126.472 62.5172C128.801 62.5172 129.643 63.8631 130.085 66.1115H122.696ZM126.599 59.0205C121.368 59.0205 118.15 63.0736 118.15 67.9338C118.15 72.1317 120.507 76.7879 126.599 76.7879C132.126 76.7879 133.697 73.1664 134.336 71.1405C134.336 71.1405 132.124 71.1405 131.452 71.1405C130.792 71.1405 130.307 71.4092 129.856 71.977C129.667 72.1968 128.7 73.3238 126.76 73.3238C122.828 73.3238 122.771 70.1384 122.696 69.049H134.626C134.963 64.158 132.428 59.0205 126.599 59.0205Z" fill="#ACACAC"/>
<path fill-rule="evenodd" clip-rule="evenodd" d="M137.439 53.1218V72.1247C137.475 75.3264 138.052 76.4393 141.955 76.4393L141.951 56.8696C141.921 53.7167 141.325 53.1218 137.439 53.1218Z" fill="#ACACAC"/>
<path fill-rule="evenodd" clip-rule="evenodd" d="M146.207 53.1218V72.1247C146.241 75.3264 146.818 76.4393 150.722 76.4393L150.719 56.8696C150.689 53.7167 150.089 53.1218 146.207 53.1218H146.207Z" fill="#ACACAC"/>
<path fill-rule="evenodd" clip-rule="evenodd" d="M113.184 69.8995C113.184 69.8995 112.15 69.8606 111.751 70.9726C111.188 72.5561 110.155 73.3238 108.396 73.3238C105.665 73.3238 104.624 70.6664 104.624 67.9361C104.624 65.3425 105.694 62.5172 108.496 62.5172C110.243 62.5172 111.17 63.3166 111.566 64.3494C111.782 64.9158 112.103 65.4248 113.107 65.4248C113.604 65.4248 116.298 65.4248 116.298 65.4248C116.056 61.0627 112.386 59.0205 108.523 59.0205C102.83 59.0205 100.084 63.2338 100.084 68.136C100.084 73.6251 103.811 76.7879 108.427 76.7879C112.458 76.7879 115.759 74.7222 116.393 69.8995H113.184Z" fill="#ACACAC"/>
<path fill-rule="evenodd" clip-rule="evenodd" d="M97.3155 67.9513C97.3155 73.8932 93.8776 76.7881 88.1207 76.7881C82.3311 76.7881 78.9565 73.9267 78.9565 67.9513V53.1191C83.0071 53.1191 83.6534 54.2135 83.6945 57.3514L83.6892 67.9513C83.6892 70.3527 84.2921 72.7224 88.1207 72.7224C91.4971 72.7224 92.5828 71.2141 92.5828 67.9513V53.1191C96.6324 53.1191 97.2783 54.2135 97.3208 57.3514L97.3155 67.9513Z" fill="#ACACAC"/>
<path d="M67.5284 44.5277C66.0196 43.1732 63.7862 42.3842 61.1474 42.1101C55.3485 41.5156 47.6155 43.3569 41.4338 46.9508C39.3691 48.1493 37.491 49.5522 35.9038 51.118C36.83 51.3894 37.7651 51.6527 38.7175 51.8897C51.0423 54.2319 61.4136 52.32 67.5284 44.5277ZM60.1055 59.3703C52.6215 56.4514 41.3014 54.9254 34.0251 53.2171C32.8176 54.7951 31.9126 56.5057 31.4231 58.332C31.0926 59.5603 30.9469 60.8366 31.0173 62.163C31.0674 63.204 31.4523 64.6739 32.1009 66.3672C35.3736 71.7825 50.0961 66.4618 60.1055 59.3703ZM70.448 51.4518C69.5346 53.594 67.6684 56.0913 65.1913 58.6012C67.1643 59.5702 68.7129 60.756 69.6737 62.2833C70.0369 60.7361 70.3041 59.193 70.4657 57.6955C70.6988 55.4923 70.6965 53.3868 70.448 51.4518ZM47.5145 54.1215C53.0623 55.1484 58.4023 56.0456 62.564 57.5132C66.6163 54.2441 69.4478 50.7768 69.625 47.9108C69.5546 47.7172 69.4939 47.5213 69.4172 47.339C69.229 46.8889 69.0208 46.4609 68.7895 46.0564C68.6159 45.7497 68.4117 45.4633 68.1907 45.1942C63.0256 52.0558 55.515 54.3024 47.5145 54.1215ZM40.5032 79.6395C40.8584 80.0141 41.2101 80.3936 41.5774 80.7411C43.386 82.4543 45.3377 83.8265 47.3324 84.5928C49.2957 85.3497 51.3046 85.5234 53.3015 84.877C55.6107 84.1264 57.7804 82.705 59.7529 80.8288C60.2136 80.3909 60.6459 79.9186 61.0832 79.4494C63.0048 77.3231 64.7022 74.7688 66.1158 71.9997C61.5009 77.8678 49.196 83.5482 40.5032 79.6395ZM35.3177 72.7887C35.1707 72.553 35.0311 72.3136 34.8902 72.0752C42.9134 74.2649 55.0309 67.8104 63.0012 60.6841C66.2761 62.4322 68.1942 64.6232 67.6232 67.4901C65.1186 75.9397 43.1978 86.0419 35.3115 72.733L35.3177 72.7887ZM35.3177 72.7887L35.3115 72.733L35.3177 72.7887Z" fill="#ACACAC"/>
</svg>
