<svg width="24" height="24" viewBox="0 0 24 24" fill="none" xmlns="http://www.w3.org/2000/svg">
<rect width="24" height="24" rx="12" fill="white" fill-opacity="0.3"/>
<path fill-rule="evenodd" clip-rule="evenodd" d="M12 4.8C8.02355 4.8 4.8 8.02355 4.8 12C4.8 15.9765 8.02355 19.2 12 19.2C13.1511 19.2 14.2367 18.9305 15.1995 18.4521C15.6446 18.2309 16.1847 18.4124 16.4059 18.8575C16.6272 19.3026 16.4456 19.8428 16.0005 20.064C14.7944 20.6634 13.4352 21 12 21C7.02943 21 3 16.9705 3 12C3 7.02943 7.02943 3 12 3C16.9705 3 21 7.02943 21 12V12.9C21 14.1681 20.6826 15.1818 20.0883 15.8949C19.485 16.6188 18.663 16.95 17.85 16.95C16.7458 16.95 15.6292 16.328 15.0691 15.291C14.2651 16.0411 13.1862 16.5 12 16.5C9.51472 16.5 7.5 14.4853 7.5 12C7.5 9.51472 9.51472 7.5 12 7.5C13.013 7.5 13.9479 7.83475 14.7 8.39967C14.7002 7.90277 15.103 7.5 15.6 7.5C16.0971 7.5 16.5 7.90295 16.5 8.4V13.8C16.5 14.5955 17.1626 15.15 17.85 15.15C18.162 15.15 18.465 15.0312 18.7055 14.7426C18.9549 14.4432 19.2 13.8819 19.2 12.9V12C19.2 8.02355 15.9765 4.8 12 4.8ZM14.7 12C14.7 10.5088 13.4912 9.3 12 9.3C10.5088 9.3 9.3 10.5088 9.3 12C9.3 13.4912 10.5088 14.7 12 14.7C13.4912 14.7 14.7 13.4912 14.7 12Z" fill="white"/>
</svg>
