<svg width="20" height="20" viewBox="0 0 20 20" fill="none" xmlns="http://www.w3.org/2000/svg">
<path d="M16.9443 6.38887H12.0832V5H16.9443V6.38887ZM18.1429 13.3332C17.8359 14.2339 16.7339 15.4166 14.6005 15.4166C12.4658 15.4166 10.7367 14.2159 10.7367 11.4756C10.7367 8.76038 12.3513 7.36456 14.5325 7.36456C16.6727 7.36456 17.9797 8.60204 18.2651 10.4381C18.3193 10.7895 18.3408 11.2631 18.3311 11.9242H12.7568C12.8471 14.1541 15.1755 14.2242 15.9429 13.3332H18.1429ZM12.8054 10.5555H16.2533C16.1804 9.4812 15.4644 9.01454 14.5332 9.01454C13.5151 9.01454 12.952 9.54787 12.8054 10.5555ZM6.15689 15.4082H1.66666V5.01458H6.49508C10.2978 5.07083 10.37 8.7951 8.38395 9.81036C10.7874 10.6854 10.8679 15.4082 6.15689 15.4082ZM3.74997 9.16662H6.23883C7.98048 9.16662 8.25686 7.08331 6.02216 7.08331H3.74997V9.16662ZM6.1048 11.2499H3.74997V13.3444H6.07008C8.19159 13.3444 8.06173 11.2499 6.1048 11.2499Z" fill="white"/>
</svg>
