<svg width="20" height="20" viewBox="0 0 20 20" fill="none" xmlns="http://www.w3.org/2000/svg">
<path fill-rule="evenodd" clip-rule="evenodd" d="M9.99999 1.6665C5.39949 1.6665 1.66666 5.39933 1.66666 9.99984C1.66666 14.6004 5.39949 18.3332 9.99999 18.3332C14.5914 18.3332 18.3333 14.6004 18.3333 9.99984C18.3333 5.39933 14.5914 1.6665 9.99999 1.6665ZM15.5043 5.50779C16.4985 6.71893 17.0951 8.26447 17.1132 9.93656C16.8782 9.8914 14.5282 9.41234 12.1601 9.71062C12.1059 9.59312 12.0607 9.46656 12.0065 9.34005C11.8619 8.99661 11.6992 8.64411 11.5365 8.30968C14.1576 7.24317 15.3507 5.70663 15.5043 5.50779ZM9.99999 2.89572C11.8076 2.89572 13.4617 3.57359 14.718 4.68531C14.5914 4.86607 13.5159 6.30317 10.9851 7.25218C9.81921 5.1101 8.52676 3.35667 8.32791 3.08552C8.86114 2.95898 9.42155 2.89572 9.99999 2.89572ZM6.97218 3.56455C7.16197 3.81762 8.42733 5.5801 9.61134 7.67697C6.28524 8.56275 3.34779 8.54468 3.03144 8.54468C3.4924 6.33932 4.98372 4.50454 6.97218 3.56455ZM2.87779 10.0089C2.87779 9.93656 2.87779 9.86426 2.87779 9.79197C3.18509 9.80098 6.63774 9.84619 10.1898 8.77968C10.3977 9.17734 10.5875 9.58406 10.7683 9.99078C10.6779 10.0179 10.5784 10.045 10.4881 10.0721C6.8185 11.2561 4.86622 14.4919 4.70353 14.763C3.57374 13.5067 2.87779 11.8346 2.87779 10.0089ZM9.99999 17.122C8.35499 17.122 6.83658 16.5617 5.63448 15.6217C5.76102 15.3596 7.20713 12.5758 11.2201 11.1748C11.2382 11.1658 11.2473 11.1658 11.2654 11.1568C12.2686 13.7507 12.6754 15.929 12.7838 16.5526C11.9251 16.9232 10.9851 17.122 9.99999 17.122ZM13.9678 15.9019C13.8955 15.468 13.5159 13.3892 12.5849 10.8313C14.8174 10.4788 16.7697 11.0573 17.0137 11.1387C16.7064 13.1181 15.5676 14.8263 13.9678 15.9019Z" fill="white"/>
</svg>
