<svg width="10" height="18" viewBox="0 0 10 18" fill="none" xmlns="http://www.w3.org/2000/svg">
<path d="M9.00577 0.753402L6.88907 0.75C4.51104 0.75 2.97424 2.32941 2.97424 4.77396V6.62927H0.845998C0.662093 6.62927 0.513168 6.77862 0.513168 6.96284V9.65098C0.513168 9.83521 0.662263 9.98439 0.845998 9.98439H2.97424V16.7674C2.97424 16.9516 3.12317 17.1008 3.30707 17.1008H6.08383C6.26773 17.1008 6.41666 16.9515 6.41666 16.7674V9.98439H8.90507C9.08898 9.98439 9.2379 9.83521 9.2379 9.65098L9.23892 6.96284C9.23892 6.87439 9.20377 6.78968 9.14145 6.72708C9.07913 6.66448 8.99422 6.62927 8.90592 6.62927H6.41666V5.0565C6.41666 4.30056 6.59649 3.91681 7.57952 3.91681L9.00543 3.9163C9.18917 3.9163 9.33809 3.76695 9.33809 3.5829V1.0868C9.33809 0.902923 9.18934 0.753742 9.00577 0.753402Z" fill="white"/>
</svg>
