<svg width="16" height="15" viewBox="0 0 16 15" fill="none" xmlns="http://www.w3.org/2000/svg">
<path d="M3.63206 14.9996V4.87882H0.202169V14.9996H3.63242H3.63206ZM1.91783 3.49722C3.11365 3.49722 3.85813 2.72006 3.85813 1.74883C3.83575 0.755471 3.11365 0 1.94057 0C0.766684 0 0 0.755471 0 1.74874C0 2.71998 0.744211 3.49714 1.89536 3.49714H1.91756L1.91783 3.49722ZM5.53055 14.9996H8.96017V9.34833C8.96017 9.04624 8.98255 8.74337 9.07316 8.52761C9.32099 7.923 9.88533 7.29715 10.8331 7.29715C12.0738 7.29715 12.5705 8.22517 12.5705 9.58587V14.9996H16V9.19667C16 6.08811 14.3082 4.64154 12.0516 4.64154C10.2016 4.64154 9.38904 5.65571 8.9376 6.34646H8.96044V4.87917H5.53073C5.57549 5.82862 5.53046 15 5.53046 15L5.53055 14.9996Z" fill="white"/>
</svg>
