<svg width="25" height="24" viewBox="0 0 25 24" fill="none" xmlns="http://www.w3.org/2000/svg">
<rect x="0.427979" width="24" height="24" rx="12" fill="white" fill-opacity="0.3"/>
<path d="M13.3975 13.6577C13.1606 13.8944 12.9237 14.2495 12.7461 14.5455C11.6802 13.7168 10.7327 12.7106 9.90364 11.7044C10.2589 11.5269 10.555 11.2901 10.7919 11.0534C11.9762 9.86958 11.5617 8.33068 10.3774 7.14691C9.19303 5.96314 7.7126 5.48963 6.46904 6.73259C5.22548 7.97555 5.10705 10.1063 6.05452 11.4677C7.77182 14.072 10.3774 16.6763 12.9829 18.3927C14.4041 19.3398 16.536 19.1622 17.7203 17.9784C18.9047 16.7946 18.4901 15.2557 17.3058 14.072C16.1214 12.8882 14.5818 12.4147 13.3975 13.6577Z" stroke="white" stroke-width="1.6" stroke-miterlimit="10" stroke-linejoin="round"/>
<path d="M19.428 11C19.428 7.66667 16.7613 5 13.428 5" stroke="white" stroke-width="1.6" stroke-miterlimit="10" stroke-linecap="round" stroke-linejoin="round"/>
<path d="M16.428 11C16.428 9.34043 15.081 8 13.428 8" stroke="white" stroke-width="1.6" stroke-miterlimit="10" stroke-linecap="round" stroke-linejoin="round"/>
</svg>
