<svg width="18" height="14" viewBox="0 0 18 14" fill="none" xmlns="http://www.w3.org/2000/svg">
<path d="M17.25 1.84819C16.6431 2.11913 15.9902 2.30239 15.3056 2.38423C16.0046 1.96257 16.5411 1.29538 16.7943 0.499082C16.1402 0.889735 15.4154 1.17313 14.6447 1.32588C14.0272 0.663781 13.1473 0.25 12.1731 0.25C10.3039 0.25 8.78794 1.77626 8.78794 3.6581C8.78794 3.92523 8.81798 4.18524 8.87604 4.43483C6.06268 4.29276 3.56816 2.93602 1.89842 0.873468C1.60709 1.37672 1.43996 1.96257 1.43996 2.58705C1.43996 3.76918 2.03803 4.81278 2.94586 5.42379C2.39121 5.40626 1.86888 5.25299 1.4127 4.99705C1.41244 5.01154 1.41244 5.02602 1.41244 5.04026C1.41244 6.69157 2.5798 8.06889 4.12811 8.38177C3.84435 8.46005 3.54468 8.50148 3.23644 8.50148C3.01781 8.50148 2.806 8.48039 2.59949 8.44074C3.03018 9.79442 4.28009 10.7798 5.76175 10.8075C4.60298 11.7218 3.14353 12.2664 1.5571 12.2664C1.28445 12.2664 1.01432 12.2504 0.75 12.2187C2.24731 13.186 4.02713 13.75 5.93872 13.75C12.1653 13.75 15.5704 8.55689 15.5704 4.05282C15.5704 3.90515 15.5671 3.75799 15.5606 3.6121C16.2225 3.13173 16.7963 2.53164 17.25 1.84819Z" fill="white"/>
</svg>
