<svg width="20" height="20" viewBox="0 0 20 20" fill="none" xmlns="http://www.w3.org/2000/svg">
<g clip-path="url(#clip0_158_1103)">
<path d="M8.60087 0.00456746C7.17241 0.0903369 5.81827 0.480792 4.54521 1.12733C3.90173 1.45387 3.82536 1.82002 4.20887 2.42735C5.53666 4.53054 6.86445 6.63352 8.2 8.73181C8.33948 8.95093 8.50591 9.16535 8.70094 9.33424C9.18431 9.75247 9.79409 9.57276 9.96359 8.95992C10.0408 8.67974 10.0381 8.3775 10.0624 8.16798C9.89436 5.67597 9.73569 3.27116 9.56843 0.86655C9.52126 0.192443 9.28192 -0.0362751 8.60087 0.00456746Z" fill="white"/>
<path d="M12.3365 11.2481C12.4068 11.2381 12.4948 11.2334 12.5791 11.2125C13.9808 10.8637 15.3838 10.519 16.7824 10.1592C17.3979 10.0009 17.595 9.65214 17.3722 9.05503C16.9599 7.95187 16.3154 6.99002 15.4528 6.18869C14.9884 5.75719 14.58 5.80579 14.2042 6.30938C13.3269 7.48524 12.4623 8.67049 11.5913 9.85084C11.3802 10.1367 11.3645 10.4396 11.5284 10.7453C11.6955 11.0563 11.9557 11.2374 12.3365 11.2481Z" fill="white"/>
<path d="M8.32414 11.9186C8.34252 11.4893 8.15954 11.1946 7.74356 11.0241C6.42721 10.4848 5.11003 9.94751 3.78939 9.4184C3.1208 9.15047 2.72973 9.3263 2.57065 10.031C2.42688 10.6678 2.33948 12.2933 2.48406 13.4469C2.60781 14.0179 2.9564 14.2064 3.50941 14.0352C4.9001 13.6056 6.2865 13.1624 7.67331 12.7205C8.10522 12.5823 8.30658 12.3252 8.32414 11.9186Z" fill="white"/>
<path d="M17.0567 14.4427C15.6245 13.9637 14.1934 13.4829 12.7598 13.0088C12.4104 12.8932 12.1084 12.9979 11.876 13.2763C11.6332 13.5675 11.5272 13.9067 11.7355 14.2481C12.5471 15.5741 13.369 16.8935 14.1997 18.2074C14.4005 18.5256 14.7205 18.5936 15.0644 18.4292C15.2112 18.3593 15.3523 18.267 15.4744 18.16C16.265 17.4671 16.9097 16.6574 17.3855 15.7185C17.4774 15.5363 17.5229 15.3309 17.5899 15.1358C17.5697 14.7658 17.3832 14.552 17.0567 14.4427Z" fill="white"/>
<path d="M9.99054 14.7847C9.9885 14.3581 9.82186 14.1084 9.4604 13.9646C9.07424 13.8114 8.71523 13.8817 8.44669 14.1978C7.48832 15.3263 6.53281 16.4572 5.58689 17.5961C5.22932 18.027 5.26669 18.4344 5.72903 18.7517C6.74968 19.4516 7.88756 19.8716 9.12018 19.9938C9.67278 20.0483 9.95889 19.7514 9.96501 19.1939C9.97339 18.4589 9.96705 17.7241 9.96705 16.9892C9.97543 16.9892 9.9836 16.9892 9.99156 16.9892C9.99156 16.2544 9.99442 15.5195 9.99054 14.7847Z" fill="white"/>
</g>
<defs>
<clipPath id="clip0_158_1103">
<rect width="20" height="20" fill="white"/>
</clipPath>
</defs>
</svg>
